<svg xmlns="http://www.w3.org/2000/svg" xmlns:xlink="http://www.w3.org/1999/xlink" width="524" height="607.552" viewBox="0 0 524 607.552"><defs><style>.a{fill:#fff;}.b,.c{fill:#e3e6e8;}.b{opacity:0.5;}.d{fill:#b5bcc1;}.e{fill:#232d32;}.f{fill:#f79679;}.g{fill:#0068b4;}.h,.l,.m{fill:none;}.h,.l{stroke:#2b100e;stroke-linecap:round;stroke-linejoin:round;}.h{stroke-width:0.369px;}.i{fill:#fff086;}.j{clip-path:url(#a);}.k{clip-path:url(#b);}.l{stroke-width:0.287px;}.m{stroke:#e4e6e8;stroke-miterlimit:10;stroke-width:0.771px;}</style><clipPath id="a"><path class="a" d="M314.983,302.257s-6.31-7.715-16.842-1.212C298.141,301.045,304.219,309,314.983,302.257Z" transform="translate(-298.141 -298.439)"/></clipPath><clipPath id="b"><path class="a" d="M316.578,301.966s4.793-7.85,10.593-1.893C327.171,300.073,322.494,308.152,316.578,301.966Z" transform="translate(-316.578 -297.841)"/></clipPath></defs><g transform="translate(0 0.003)"><g transform="translate(0 314.786)"><ellipse class="b" cx="225.492" cy="17.192" rx="225.492" ry="17.192" transform="translate(56.492 258.38)"/><g transform="translate(299.499)"><g transform="translate(68.843)"><g transform="translate(5.368 14.793)"><path class="c" d="M385.216,604.6a1.147,1.147,0,0,0,1.385-.794c2.465-8.846,5.446-17.584,8.736-26.2q2.478-6.464,5.2-12.839c1.84-4.242,3.726-8.467,5.738-12.641A269.725,269.725,0,0,1,435.212,504.3a.99.99,0,0,0-.26-1.482,1.287,1.287,0,0,0-1.646.34,271.318,271.318,0,0,0-29.12,48.128c-2.022,4.2-3.918,8.44-5.766,12.7q-2.737,6.406-5.225,12.9c-3.309,8.662-6.3,17.424-8.786,26.353A1.1,1.1,0,0,0,385.216,604.6Z" transform="translate(-384.368 -502.65)"/></g><g transform="translate(51.916)"><path class="c" d="M421.988,499.452a24.266,24.266,0,0,0-1.891,3.685c-.3.706-.6,1.431-.868,2.162s-.5,1.468-.724,2.169c-.445,1.4-.814,2.673-1.064,3.6l-.361,1.514s2.011-1.357,4.56-3.074c.629-.434,1.285-.893,1.944-1.366l2-1.414a42.579,42.579,0,0,0,3.471-2.738,18.084,18.084,0,0,0,2.149-2.3,25.941,25.941,0,0,0,2.159-3.189c1.238-2.209,1.76-4.491.067-5.707s-4.106-.229-6.35,1.4a20.49,20.49,0,0,0-3.038,2.757A24.839,24.839,0,0,0,421.988,499.452Z" transform="translate(-417.078 -492.251)"/></g><g transform="translate(40.402 4.829)"><path class="c" d="M409.139,507.51a31.216,31.216,0,0,0,2.821,7.884c.612,1.286,1.207,2.43,1.649,3.251s.74,1.329.74,1.329l.471-1.427c.293-.885.69-2.114,1.106-3.5s.9-2.9,1.289-4.382.721-2.925.929-4.106a19.186,19.186,0,0,0-.377-6.689c-.575-2.388-1.76-4.4-4.056-4.215a3.785,3.785,0,0,0-2.749,1.6,9.551,9.551,0,0,0-1.473,3.374,17.676,17.676,0,0,0-.364,1.936c-.078.649-.115,1.295-.131,1.9A18.988,18.988,0,0,0,409.139,507.51Z" transform="translate(-408.987 -495.646)"/></g><g transform="translate(29.841 18.502)"><path class="c" d="M401.975,517.975a21,21,0,0,0,1.385,3.925c.643,1.425,1.4,2.892,2.137,4.212s1.436,2.494,1.955,3.336.868,1.36.868,1.36l.388-1.528c.242-.946.568-2.26.9-3.738s.726-3.1,1.022-4.68c.154-.789.287-1.568.4-2.308s.215-1.428.268-2.058a20.966,20.966,0,0,0-.918-7.006c-.8-2.481-2.213-4.525-4.579-4.2a3.891,3.891,0,0,0-2.728,1.828,9.5,9.5,0,0,0-1.262,3.62A20.857,20.857,0,0,0,401.975,517.975Z" transform="translate(-401.565 -505.257)"/></g><g transform="translate(19.534 33.858)"><path class="c" d="M395.092,529.619A38.54,38.54,0,0,0,399.318,538c1.718,2.711,3.276,4.813,3.276,4.813s.115-.62.3-1.63.421-2.414.694-3.978c.256-1.569.515-3.307.743-4.977a44.665,44.665,0,0,0,.381-4.628,21.762,21.762,0,0,0-1.464-7.315c-1.019-2.562-2.643-4.632-5.086-4.165a3.926,3.926,0,0,0-2.707,2.057,10.165,10.165,0,0,0-1.05,3.859,19.888,19.888,0,0,0,.068,4.265A21.957,21.957,0,0,0,395.092,529.619Z" transform="translate(-394.322 -516.052)"/></g><g transform="translate(9.561 50.96)"><path class="c" d="M388.545,542.51a41.236,41.236,0,0,0,4.954,8.615c1.96,2.769,3.721,4.909,3.721,4.909l.213-1.728c.117-1.075.3-2.556.471-4.219s.344-3.5.454-5.273a47.371,47.371,0,0,0,.1-4.884,23.466,23.466,0,0,0-2.024-7.621c-1.268-2.653-3.074-4.734-5.608-4.131a3.964,3.964,0,0,0-2.66,2.3,10.057,10.057,0,0,0-.845,4.1,23.118,23.118,0,0,0,.35,4.474A23.583,23.583,0,0,0,388.545,542.51Z" transform="translate(-387.314 -528.073)"/></g><g transform="translate(0 69.905)"><path class="c" d="M382.392,556.729a44.483,44.483,0,0,0,5.729,8.837c2.231,2.827,4.2,4.99,4.2,4.99s.043-.7.114-1.828.149-2.707.218-4.465.138-3.7.134-5.572a46.206,46.206,0,0,0-.209-5.145,24.919,24.919,0,0,0-2.6-7.921c-1.489-2.729-3.529-4.834-6.126-4.078-2.574.764-3.358,3.709-3.246,6.888a26.23,26.23,0,0,0,1.786,8.295Z" transform="translate(-380.596 -541.391)"/></g><g transform="translate(42.943 22.399)"><path class="c" d="M425.415,517.591a31.268,31.268,0,0,1-4.2.724c-1.572.2-3.255.347-4.8.462-3.094.23-5.642.326-5.642.326s1.766-1.636,4.073-3.581c1.158-.97,2.5-1.992,3.792-2.94.652-.472,1.3-.925,1.921-1.334s1.249-.764,1.817-1.067a19.094,19.094,0,0,1,3-1.218c.61-.195,1.259-.377,1.923-.531a20.181,20.181,0,0,1,2.029-.34c2.69-.307,5.163.068,5.864,1.91a2.558,2.558,0,0,1-.516,2.588,9.267,9.267,0,0,1-2.691,2.229A30.713,30.713,0,0,1,425.415,517.591Z" transform="translate(-410.772 -507.996)"/></g><g transform="translate(33.95 35.961)"><path class="c" d="M419.637,527.987a32.258,32.258,0,0,1-4.333.99c-1.631.29-3.378.533-4.986.735s-3.077.356-4.143.464l-1.722.167s.421-.458,1.144-1.179,1.722-1.716,2.86-2.8,2.463-2.229,3.748-3.3a32.929,32.929,0,0,1,3.73-2.733,22.175,22.175,0,0,1,7.11-2.593c2.778-.484,5.388-.238,6.263,1.671s-.781,3.732-3,5.281a27.613,27.613,0,0,1-3.59,2.017A27.019,27.019,0,0,1,419.637,527.987Z" transform="translate(-404.453 -517.529)"/></g><g transform="translate(25.348 51.15)"><path class="c" d="M414.1,539.545a57.623,57.623,0,0,1-9.627,2.275c-3.32.582-6.068.949-6.068.949s.424-.492,1.114-1.3l1.235-1.4,1.575-1.684a55.63,55.63,0,0,1,7.4-6.726,23.4,23.4,0,0,1,7.249-3.1c2.875-.654,5.621-.536,6.663,1.433a2.918,2.918,0,0,1-.169,2.948,9.687,9.687,0,0,1-2.611,2.787A30.211,30.211,0,0,1,414.1,539.545Z" transform="translate(-398.408 -528.207)"/></g><g transform="translate(17.215 68.028)"><path class="c" d="M408.9,552.318a59.58,59.58,0,0,1-9.913,2.847c-3.438.765-6.29,1.276-6.29,1.276l1.089-1.414c.682-.871,1.625-2.073,2.741-3.373s2.349-2.72,3.625-4.023a36.6,36.6,0,0,1,3.681-3.406,20.459,20.459,0,0,1,3.105-1.923,24.411,24.411,0,0,1,4.265-1.7c2.944-.839,5.823-.853,7.044,1.174s-.319,4.244-2.529,6.2A31.143,31.143,0,0,1,408.9,552.318Z" transform="translate(-392.693 -540.071)"/></g><g transform="translate(9.746 86.673)"><path class="c" d="M404.088,566.34a61.818,61.818,0,0,1-10.162,3.462c-3.546.966-6.482,1.65-6.482,1.65s1.541-2.374,3.674-5.228a58.943,58.943,0,0,1,7.154-8.163,24.387,24.387,0,0,1,7.465-4.158c3.033-1.019,6.038-1.172,7.441.9s-.048,4.491-2.256,6.639a27.76,27.76,0,0,1-3.614,2.927A29.122,29.122,0,0,1,404.088,566.34Z" transform="translate(-387.444 -553.178)"/></g></g><g transform="translate(0 102.956)"><g transform="translate(0 15.239)"><path class="c" d="M332.282,643.852c-.3.814.5,1.832,1.748,2.189,4.653,1.368,9.357,2.394,14.09,3.288,2.372.4,4.742.832,7.127,1.142,2.379.367,4.772.616,7.162.885a199.83,199.83,0,0,0,57.457-2.386c1.181-.221,2.369-.414,3.546-.657l3.515-.8,3.516-.8c.585-.138,1.175-.252,1.755-.413l1.738-.477,6.949-1.913,6.851-2.235a199.646,199.646,0,0,0,26.52-11.156c4.34-2.054,8.452-4.525,12.631-6.871l1.561-.89,1.514-.966,3.03-1.93,3.028-1.93c1-.653,2.038-1.26,3-1.979a256.763,256.763,0,0,0,43.123-37.578c.867-.936,1.04-2.164.389-2.743s-1.876-.3-2.732.623a253.645,253.645,0,0,1-42.581,37.113c-.945.708-1.965,1.306-2.954,1.949l-2.986,1.9-2.985,1.9-1.493.953-1.538.878c-4.118,2.309-8.168,4.746-12.443,6.767A196.454,196.454,0,0,1,446.7,638.712l-6.742,2.2-6.839,1.882-1.709.471c-.571.158-1.153.269-1.728.405l-3.459.784-3.459.784c-1.158.239-2.327.428-3.489.646a196.586,196.586,0,0,1-56.538,2.349c-2.351-.265-4.7-.508-7.04-.869-2.345-.3-4.671-.73-7-1.122-4.638-.875-9.266-1.886-13.761-3.208C333.735,642.688,332.582,643.036,332.282,643.852Z" transform="translate(-332.219 -575.337)"/></g><g transform="translate(205.646)"><path class="c" d="M481.919,571.237a47.958,47.958,0,0,0-3.511,8.4c-.99,3-1.679,5.558-1.679,5.558s2.345-.865,5.251-2.147c2.887-1.287,6.419-2.942,8.415-4.633,2.564-2.06,7.909-9.423,3.511-12.817S483.611,568.567,481.919,571.237Z" transform="translate(-476.729 -564.624)"/></g><g transform="translate(192.904 0.374)"><path class="c" d="M467.971,576.575a66.05,66.05,0,0,0,2.631,10.013c1.111,3.45,2.118,6.3,2.118,6.3s1.127-2.186,2.364-5a37.7,37.7,0,0,0,2.856-9.009,21.036,21.036,0,0,0-.656-7.818c-.817-2.925-2.369-5.527-4.887-6.077s-3.71,1.428-4.245,4.023A25.649,25.649,0,0,0,467.971,576.575Z" transform="translate(-467.775 -564.887)"/></g><g transform="translate(180.558 11.072)"><path class="c" d="M459.129,584.326a71.235,71.235,0,0,0,2.113,10.722c.935,3.716,1.793,6.8,1.793,6.8s1.314-2.246,2.775-5.147c.73-1.451,1.5-3.064,2.162-4.646.331-.792.637-1.576.9-2.329a19.972,19.972,0,0,0,.592-2.206,22.3,22.3,0,0,0-.238-8.271c-.687-3.125-2.163-5.951-4.747-6.685s-3.923,1.268-4.618,3.962A30.122,30.122,0,0,0,459.129,584.326Z" transform="translate(-459.1 -572.407)"/></g><g transform="translate(166.452 21.706)"><path class="c" d="M449.188,591.954a44.327,44.327,0,0,0,.437,5.286c.245,1.976.573,4.1.892,6.067.642,3.928,1.251,7.2,1.251,7.2s1.6-2.2,3.421-5.046c.223-.359.454-.726.687-1.1l.653-1.193c.434-.807.86-1.63,1.257-2.448a33.64,33.64,0,0,0,1.91-4.636,20.981,20.981,0,0,0,.414-8.6c-.517-3.349-1.874-6.423-4.5-7.367a2.9,2.9,0,0,0-3.151.533,7.785,7.785,0,0,0-1.943,3.2A27.985,27.985,0,0,0,449.188,591.954Z" transform="translate(-449.187 -579.883)"/></g><g transform="translate(150.324 31.884)"><path class="c" d="M437.961,599.129a42.352,42.352,0,0,0-.037,5.548c.09,2.121.263,4.432.388,6.485.277,4.145.576,7.616.576,7.616l1.23-1.4a45.2,45.2,0,0,0,2.835-3.551,52.884,52.884,0,0,0,5.625-9.309,24.176,24.176,0,0,0,1.127-9.026c-.232-3.507-1.385-6.808-4.05-8.059s-4.4.659-5.576,3.448c-.286.708-.561,1.43-.805,2.162s-.451,1.491-.629,2.226A29.8,29.8,0,0,0,437.961,599.129Z" transform="translate(-437.854 -587.037)"/></g><g transform="translate(131.183 41.274)"><path class="c" d="M425.6,605.57a45.547,45.547,0,0,0-.628,5.78c-.068,1.111-.118,2.278-.168,3.427s-.1,2.272-.149,3.359c-.169,4.363-.253,8.029-.253,8.029l1.439-1.336,1.538-1.481c.575-.563,1.205-1.177,1.827-1.9,1.259-1.411,2.6-2.993,3.818-4.566.608-.788,1.183-1.573,1.7-2.336a17.344,17.344,0,0,0,1.335-2.236,24.893,24.893,0,0,0,2.108-9.265c.111-3.667-.771-7.212-3.42-8.807s-4.629.185-6.122,2.949c-.379.68-.7,1.464-1.035,2.191s-.62,1.5-.879,2.246A31.79,31.79,0,0,0,425.6,605.57Z" transform="translate(-424.403 -593.638)"/></g><g transform="translate(194.028 26.136)"><path class="c" d="M485.349,593.517a48.838,48.838,0,0,1-10.474-2.343c-1.755-.555-3.331-1.107-4.468-1.521s-1.841-.694-1.841-.694.145-.06.394-.181l1.074-.5c.912-.418,2.187-.989,3.636-1.6a60.824,60.824,0,0,1,9.247-3.212,24.612,24.612,0,0,1,8.134-.252c3.129.432,6.055,1.555,6.738,4.084s-1.5,4.189-4.279,5.167c-.349.122-.7.233-1.067.336s-.751.175-1.128.249c-.759.146-1.52.255-2.248.331A24.954,24.954,0,0,1,485.349,593.517Z" transform="translate(-468.565 -582.997)"/></g><g transform="translate(180.105 39.108)"><path class="c" d="M476.1,603.07a29.938,29.938,0,0,1-5.1-1.148c-1.883-.565-3.918-1.337-5.725-2.058-3.632-1.46-6.5-2.858-6.5-2.858s2.432-.891,5.625-1.886a61.437,61.437,0,0,1,9.835-2.827,29.672,29.672,0,0,1,8.638.344c3.239.636,6.227,1.984,6.779,4.7a3.406,3.406,0,0,1-1.086,3.306,8.979,8.979,0,0,1-3.845,1.821A26.826,26.826,0,0,1,476.1,603.07Z" transform="translate(-458.781 -592.115)"/></g><g transform="translate(164.209 51.977)"><path class="c" d="M465.2,612.661a51.727,51.727,0,0,1-11.08-4.256c-1.82-.895-3.441-1.763-4.606-2.405-1.183-.669-1.905-1.1-1.905-1.1l.47-.118c.307-.068.738-.186,1.268-.341,1.066-.3,2.553-.711,4.241-1.137s3.576-.865,5.436-1.229c.923-.188,1.863-.329,2.725-.488s1.686-.285,2.445-.361a28.226,28.226,0,0,1,9.012.987c3.387.948,6.448,2.6,6.771,5.467s-2.4,4.366-5.648,5.016a22.486,22.486,0,0,1-5,.405A27.636,27.636,0,0,1,465.2,612.661Z" transform="translate(-447.611 -601.162)"/></g><g transform="translate(145.972 64.412)"><path class="c" d="M452.451,622.035c-3.1-.9-7.595-3.319-11.221-5.569s-6.435-4.3-6.435-4.3,2.779-.543,6.412-1.076c1.809-.277,3.864-.5,5.823-.741a43.447,43.447,0,0,1,5.474-.449,31.138,31.138,0,0,1,9.411,1.906c3.424,1.233,6.464,3.194,6.562,6.271.131,3.123-2.941,4.4-6.455,4.768a26.58,26.58,0,0,1-5.322-.04A23.315,23.315,0,0,1,452.451,622.035Z" transform="translate(-434.795 -609.903)"/></g><g transform="translate(125.192 75.819)"><path class="c" d="M437.524,630.734c-3.142-1.267-7.572-4.276-11.094-7.022-1.772-1.38-3.309-2.645-4.438-3.649-1.121-.986-1.8-1.616-1.8-1.616l1.989-.083c1.22-.088,2.919-.2,4.843-.28s4.074-.139,6.176-.125a46.568,46.568,0,0,1,5.779.112,24.894,24.894,0,0,1,4.3.929,40.137,40.137,0,0,1,5.339,2.019c3.464,1.643,6.455,4,6.21,7.227a4.048,4.048,0,0,1-2.328,3.421,11.756,11.756,0,0,1-4.995.942,28.147,28.147,0,0,1-5.6-.592c-.879-.181-1.7-.376-2.443-.6S438.059,630.95,437.524,630.734Z" transform="translate(-420.193 -617.922)"/></g><g transform="translate(107.936 49.492)"><path class="c" d="M411.922,611a56.339,56.339,0,0,0-1.382,5.886c-.428,2.268-.83,4.734-1.191,7.02-.7,4.606-1.282,8.406-1.282,8.406a5.372,5.372,0,0,0,.453-.319l1.212-.922c1.019-.785,2.416-1.886,3.925-3.148.754-.632,1.537-1.3,2.315-2s1.524-1.488,2.25-2.243a37.916,37.916,0,0,0,3.707-4.43,24,24,0,0,0,3.3-9.382c.534-3.827.011-7.632-2.54-9.6a3.273,3.273,0,0,0-3.573-.56,5.609,5.609,0,0,0-1.594,1.158,10.5,10.5,0,0,0-.746.835c-.249.284-.494.589-.73.912A32.874,32.874,0,0,0,411.922,611Z" transform="translate(-408.067 -599.415)"/></g><g transform="translate(101.34 84.205)"><path class="c" d="M419.907,638.815a34.977,34.977,0,0,1-5.244-3.68c-1.867-1.558-3.76-3.356-5.426-5.027-3.341-3.354-5.8-6.291-5.8-6.291s3.129.164,7.188.563c2.015.155,4.241.293,6.425.542,1.09.119,2.167.259,3.192.421.512.081,1.012.166,1.494.259s.934.159,1.37.252a33.844,33.844,0,0,1,9.7,4.179c3.469,2.228,6.286,4.958,5.634,8.338-.695,3.291-4.359,4.049-8.274,3.672a21.287,21.287,0,0,1-2.957-.488c-.988-.245-1.952-.536-2.857-.847A31.1,31.1,0,0,1,419.907,638.815Z" transform="translate(-403.432 -623.817)"/></g><g transform="translate(81.868 55.793)"><path class="c" d="M396.738,614.705a60.141,60.141,0,0,0-2.236,5.978c-.761,2.293-1.526,4.8-2.224,7.121l-2.529,8.56s.185-.087.514-.273l1.395-.785c1.173-.67,2.783-1.615,4.531-2.71a55.727,55.727,0,0,0,5.335-3.808c.861-.683,1.686-1.371,2.442-2.051a19.734,19.734,0,0,0,2.024-2.033,26.815,26.815,0,0,0,4.683-9.3,16.131,16.131,0,0,0,.593-5.76,7.285,7.285,0,0,0-1.971-4.574,3.543,3.543,0,0,0-3.616-1.085,8.3,8.3,0,0,0-3.553,2.581,37.724,37.724,0,0,0-3.169,4.216A36.435,36.435,0,0,0,396.738,614.705Z" transform="translate(-389.749 -603.845)"/></g><g transform="translate(74.747 89.29)"><path class="c" d="M399.76,645.29a36.49,36.49,0,0,1-4.952-4.571c-1.722-1.869-3.438-4.009-4.934-5.978-3-3.953-5.129-7.35-5.129-7.35s3.228.6,7.4,1.581c2.073.432,4.376.9,6.617,1.471,1.12.277,2.224.583,3.269.885,1.039.274,2.022.566,2.907.878a27.618,27.618,0,0,1,4.359,2.125,44.446,44.446,0,0,1,5.194,3.565c3.289,2.676,5.893,5.982,4.723,9.372a4.605,4.605,0,0,1-3.5,3.052,13.318,13.318,0,0,1-5.682-.29,27.281,27.281,0,0,1-3.031-.913c-.5-.179-.985-.371-1.463-.569s-.948-.437-1.4-.662A32.73,32.73,0,0,1,399.76,645.29Z" transform="translate(-384.745 -627.391)"/></g><g transform="translate(53.167 59.411)"><path class="c" d="M380.121,616.286a53.949,53.949,0,0,0-3.217,5.833c-1.134,2.282-2.3,4.845-3.386,7.116-2.159,4.635-3.938,8.456-3.938,8.456l2.146-.787,2.314-.9c.868-.337,1.816-.792,2.806-1.243s2.022-.955,3.055-1.474,2.069-1.046,3.062-1.662a41.731,41.731,0,0,0,5.243-3.622,19.871,19.871,0,0,0,3.158-3.609,29.236,29.236,0,0,0,3.062-5.383,19.989,19.989,0,0,0,1.013-2.945,14.5,14.5,0,0,0,.44-2.94,7.693,7.693,0,0,0-1.375-5.04c-2.1-2.807-4.892-1.792-7.611.535A37.782,37.782,0,0,0,380.121,616.286Z" transform="translate(-369.58 -606.388)"/></g><g transform="translate(45.618 90.671)"><path class="c" d="M377.142,649.262a38.587,38.587,0,0,1-4.464-5.552,79.813,79.813,0,0,1-4.212-6.9c-2.506-4.578-4.191-8.444-4.191-8.444l2.153.779c1.336.488,3.2,1.229,5.287,1.965,1.045.383,2.147.8,3.27,1.235s2.267.909,3.387,1.329a56.143,56.143,0,0,1,6.162,2.757,38.683,38.683,0,0,1,9.1,7.295c3.034,3.3,5.257,7.063,3.528,10.444a4.751,4.751,0,0,1-4.124,2.613,13.968,13.968,0,0,1-5.891-1.065,31.8,31.8,0,0,1-5.833-3.155A30.625,30.625,0,0,1,377.142,649.262Z" transform="translate(-364.275 -628.362)"/></g><g transform="translate(22.237 59.665)"><path class="c" d="M362.279,615.066a63.516,63.516,0,0,0-4.266,5.575c-1.543,2.179-3.165,4.582-4.668,6.811l-5.5,8.126s.9-.161,2.357-.457c1.45-.272,3.464-.789,5.662-1.386l1.682-.477,1.725-.565c1.157-.39,2.318-.805,3.444-1.238a39.505,39.505,0,0,0,6.012-2.938,21.085,21.085,0,0,0,3.844-3.242,30.522,30.522,0,0,0,4.019-5.1c2.338-3.851,3.529-8.147,1.8-11.372-1.726-3.177-4.749-2.589-7.915-.616a31.456,31.456,0,0,0-4.629,3.451A47.574,47.574,0,0,0,362.279,615.066Z" transform="translate(-347.845 -606.566)"/></g><g transform="translate(14.427 87.342)"><path class="c" d="M352.19,649.841a37.492,37.492,0,0,1-3.743-6.48c-.6-1.267-1.178-2.589-1.719-3.912-.541-1.34-1.043-2.682-1.5-3.968-.911-2.579-1.635-4.916-2.122-6.651s-.751-2.81-.751-2.81l7.235,4.116c1.02.572,2.095,1.186,3.189,1.829s2.21,1.255,3.3,1.911,2.162,1.329,3.169,1.96,1.952,1.263,2.788,1.883a42.694,42.694,0,0,1,8.295,9.023A19.158,19.158,0,0,1,373.2,652.7a6.358,6.358,0,0,1-.867,5.45,5.1,5.1,0,0,1-4.736,2.066,13.846,13.846,0,0,1-5.993-2.063,32.5,32.5,0,0,1-5.6-4.178A35.228,35.228,0,0,1,352.19,649.841Z" transform="translate(-342.357 -626.022)"/></g></g><g transform="translate(12.546 6.614)"><path class="d" d="M347.59,664.157c-.606-.871-10.172-14.988-5.053-25.929,3.319-7.1,11.53-10.109,22.194-14.022,12.877-4.724,16.236-2.657,20.071-6.83,7.255-7.892-2.059-18.22,3.959-26.47,7.371-10.1,25.272.006,36-9.995,9.391-8.751.636-21.112,8.73-33.076,7.986-11.8,22.41-2.424,38.579-13.921,11.574-8.228,7.209-14.17,20.57-24.733,3.95-3.124,21.932-17.34,37.128-10.39,6.169,2.822,10.462,6.282,10.105,11.692-.347,5.237-5.057,13.61-21.373,20.748-12.177,5.329-12.745,5.781-14.4,7.621-10.109,11.268,9.342,29.531,1.323,42.5-7.384,11.948-28.963.387-41.36,12.88-13.673,13.777,4.239,36.243-9.589,48.889-11.82,10.809-31.61.521-40.406,12.746-6.429,8.936,1.833,17.644-4.318,24.378C399.71,691.251,362.126,685.041,347.59,664.157Z" transform="translate(-341.035 -496.9)"/><path class="c" d="M513.561,510.422a1.018,1.018,0,0,0,.377-1.35.92.92,0,0,0-1.309-.3A483.21,483.21,0,0,0,430.244,573.3c1.937-3.33,3.746-6.737,5.4-10.187a145.874,145.874,0,0,0,7.581-19.109.922.922,0,0,0-.615-1.195,1.022,1.022,0,0,0-1.215.7,143.574,143.574,0,0,1-7.473,18.833c-2.627,5.463-9.068,16.179-9.09,16.313q-2.86,2.874-5.671,5.8-4.4,4.579-8.689,9.288-2.354,2.576-4.669,5.191-1.575,1.782-3.135,3.576.707-1.489,1.314-3.027a47.476,47.476,0,0,0,3.075-12.726.9.9,0,0,0-.861-1.016,1.04,1.04,0,0,0-1.056.937,45.348,45.348,0,0,1-2.941,12.174c-1.925,4.892-8.4,13.911-8.395,14.16h0a488.813,488.813,0,0,0-31.871,43.55.956.956,0,0,0,.245,1.34h0a.987.987,0,0,0,1.339-.333q10.564-16.251,22.427-31.647h0c.145-.04,14.4-11.244,27.982-10.833a34.888,34.888,0,0,1,16.2,4.6.988.988,0,0,0,1.326-.391.956.956,0,0,0-.306-1.326,36.7,36.7,0,0,0-17.048-4.837c-10.067-.306-18.36,3.609-23.765,7.168l.006-.007q10.3-12.976,21.44-25.2a41.651,41.651,0,0,1,9.275-6.594,39.3,39.3,0,0,1,21.737-4.318,1.031,1.031,0,0,0,1.093-.886.909.909,0,0,0-.81-1.061,41.234,41.234,0,0,0-22.814,4.534c-.507.265-1.009.536-1.5.824.574-.606,1.153-1.213,1.732-1.815q12.06-12.547,24.985-24.181a1.013,1.013,0,0,0,.6-.3,34.6,34.6,0,0,1,12.691-8.221,31.727,31.727,0,0,1,18.081-1.152,1.025,1.025,0,0,0,1.192-.74.921.921,0,0,0-.657-1.169,33.648,33.648,0,0,0-19.17,1.225c-.535.2-1.066.407-1.592.63h0A480.444,480.444,0,0,1,513.561,510.422Z" transform="translate(-332.265 -491.95)"/></g></g><g transform="translate(86.313)"><g transform="translate(12.909 14.793)"><path class="d" d="M241.7,604.6a1.147,1.147,0,0,1-1.385-.794c-2.465-8.846-5.446-17.584-8.738-26.2q-2.476-6.464-5.2-12.839c-1.84-4.242-3.726-8.467-5.738-12.641A269.726,269.726,0,0,0,191.706,504.3a.99.99,0,0,1,.26-1.482,1.287,1.287,0,0,1,1.646.34,271.222,271.222,0,0,1,29.119,48.128c2.024,4.2,3.919,8.44,5.768,12.7q2.737,6.406,5.225,12.9c3.309,8.662,6.3,17.424,8.786,26.353A1.1,1.1,0,0,1,241.7,604.6Z" transform="translate(-191.481 -502.65)"/></g><path class="d" d="M194.93,499.452a24.263,24.263,0,0,1,1.891,3.685c.3.706.6,1.431.868,2.162s.5,1.468.724,2.169c.445,1.4.814,2.673,1.064,3.6l.361,1.514s-2.011-1.357-4.559-3.074c-.629-.434-1.285-.893-1.944-1.366l-2-1.414a42.589,42.589,0,0,1-3.471-2.738,18.079,18.079,0,0,1-2.149-2.3,25.941,25.941,0,0,1-2.159-3.189c-1.238-2.209-1.76-4.491-.067-5.707s4.105-.229,6.35,1.4a20.487,20.487,0,0,1,3.038,2.757A24.835,24.835,0,0,1,194.93,499.452Z" transform="translate(-182.41 -492.251)"/><g transform="translate(19.643 4.829)"><path class="d" d="M205.362,507.51a31.218,31.218,0,0,1-2.82,7.884c-.612,1.286-1.207,2.43-1.649,3.251s-.74,1.329-.74,1.329l-.471-1.427c-.293-.885-.69-2.114-1.106-3.5s-.9-2.9-1.289-4.382-.721-2.925-.929-4.106a19.188,19.188,0,0,1,.377-6.689c.575-2.388,1.76-4.4,4.056-4.215a3.78,3.78,0,0,1,2.748,1.6,9.552,9.552,0,0,1,1.474,3.374,17.7,17.7,0,0,1,.364,1.936c.078.649.115,1.295.131,1.9A19.152,19.152,0,0,1,205.362,507.51Z" transform="translate(-196.214 -495.646)"/></g><g transform="translate(29.741 18.502)"><path class="d" d="M212.664,517.975a21,21,0,0,1-1.385,3.925c-.643,1.425-1.4,2.892-2.137,4.212s-1.436,2.494-1.955,3.336-.868,1.36-.868,1.36-.148-.581-.388-1.528-.568-2.26-.9-3.738-.726-3.1-1.022-4.68c-.154-.789-.287-1.568-.4-2.308s-.215-1.428-.268-2.058a20.965,20.965,0,0,1,.918-7.006c.8-2.481,2.213-4.525,4.579-4.2a3.891,3.891,0,0,1,2.728,1.828,9.5,9.5,0,0,1,1.262,3.62A20.857,20.857,0,0,1,212.664,517.975Z" transform="translate(-203.309 -505.257)"/></g><g transform="translate(39.418 33.858)"><path class="d" d="M219.734,529.619A38.478,38.478,0,0,1,215.508,538c-1.718,2.711-3.276,4.813-3.276,4.813s-.115-.62-.3-1.63-.423-2.414-.694-3.978c-.256-1.569-.515-3.307-.743-4.977a44.67,44.67,0,0,1-.381-4.628,21.763,21.763,0,0,1,1.464-7.315c1.019-2.562,2.643-4.632,5.086-4.165a3.925,3.925,0,0,1,2.707,2.057,10.165,10.165,0,0,1,1.05,3.859,19.883,19.883,0,0,1-.068,4.265A21.951,21.951,0,0,1,219.734,529.619Z" transform="translate(-210.11 -516.052)"/></g><g transform="translate(48.611 50.96)"><path class="d" d="M226.513,542.51a41.241,41.241,0,0,1-4.954,8.615c-1.96,2.769-3.721,4.909-3.721,4.909l-.213-1.728c-.117-1.075-.3-2.556-.471-4.219s-.344-3.5-.454-5.273a47.381,47.381,0,0,1-.1-4.884,23.469,23.469,0,0,1,2.024-7.621c1.268-2.653,3.074-4.734,5.608-4.131a3.964,3.964,0,0,1,2.66,2.3,10.057,10.057,0,0,1,.845,4.1,23.12,23.12,0,0,1-.35,4.474A23.594,23.594,0,0,1,226.513,542.51Z" transform="translate(-216.57 -528.073)"/></g><g transform="translate(57.15 69.905)"><path class="d" d="M232.97,556.729a44.481,44.481,0,0,1-5.729,8.837c-2.231,2.827-4.2,4.99-4.2,4.99s-.043-.7-.114-1.828-.149-2.707-.218-4.465-.138-3.7-.134-5.572a46.188,46.188,0,0,1,.209-5.145,24.92,24.92,0,0,1,2.6-7.921c1.489-2.729,3.529-4.834,6.126-4.078,2.574.764,3.358,3.709,3.246,6.888a26.23,26.23,0,0,1-1.786,8.295Z" transform="translate(-222.57 -541.391)"/></g><g transform="translate(1.82 22.399)"><path class="d" d="M193.629,517.591a31.271,31.271,0,0,0,4.2.724c1.572.2,3.255.347,4.8.462,3.094.23,5.642.326,5.642.326s-1.766-1.636-4.073-3.581c-1.158-.97-2.5-1.992-3.792-2.94-.652-.472-1.3-.925-1.921-1.334s-1.249-.764-1.817-1.067a19.093,19.093,0,0,0-3-1.218c-.611-.195-1.259-.377-1.923-.531a20.185,20.185,0,0,0-2.029-.34c-2.69-.307-5.163.068-5.864,1.91a2.558,2.558,0,0,0,.517,2.588,9.266,9.266,0,0,0,2.691,2.229A30.714,30.714,0,0,0,193.629,517.591Z" transform="translate(-183.689 -507.996)"/></g><g transform="translate(10.301 35.961)"><path class="d" d="M199.559,527.987a32.261,32.261,0,0,0,4.333.99c1.631.29,3.378.533,4.986.735s3.077.356,4.142.464l1.722.167s-.421-.458-1.144-1.179-1.722-1.716-2.862-2.8-2.462-2.229-3.747-3.3a32.934,32.934,0,0,0-3.73-2.733,22.175,22.175,0,0,0-7.11-2.593c-2.778-.484-5.388-.238-6.263,1.671s.78,3.732,3,5.281a27.518,27.518,0,0,0,3.59,2.017A27.022,27.022,0,0,0,199.559,527.987Z" transform="translate(-189.649 -517.529)"/></g><g transform="translate(18.439 51.15)"><path class="d" d="M205.231,539.545a57.623,57.623,0,0,0,9.627,2.275c3.32.582,6.068.949,6.068.949s-.424-.492-1.114-1.3l-1.235-1.4L217,538.391a55.627,55.627,0,0,0-7.4-6.726,23.394,23.394,0,0,0-7.249-3.1c-2.875-.654-5.621-.536-6.663,1.433a2.918,2.918,0,0,0,.169,2.948,9.687,9.687,0,0,0,2.611,2.787A30.211,30.211,0,0,0,205.231,539.545Z" transform="translate(-195.368 -528.207)"/></g><g transform="translate(26.144 68.028)"><path class="d" d="M210.565,552.318a59.579,59.579,0,0,0,9.913,2.847c3.438.765,6.29,1.276,6.29,1.276l-1.089-1.414c-.682-.871-1.625-2.073-2.741-3.373s-2.349-2.72-3.625-4.023a36.6,36.6,0,0,0-3.681-3.406,20.415,20.415,0,0,0-3.107-1.923,24.353,24.353,0,0,0-4.263-1.7c-2.944-.839-5.823-.853-7.044,1.174s.319,4.244,2.529,6.2A31.143,31.143,0,0,0,210.565,552.318Z" transform="translate(-200.782 -540.071)"/></g><g transform="translate(33.316 86.673)"><path class="d" d="M215.462,566.34a61.815,61.815,0,0,0,10.162,3.462c3.546.966,6.482,1.65,6.482,1.65s-1.543-2.374-3.674-5.228a58.945,58.945,0,0,0-7.154-8.163,24.4,24.4,0,0,0-7.465-4.158c-3.032-1.019-6.038-1.172-7.441.9s.048,4.491,2.256,6.639a27.76,27.76,0,0,0,3.615,2.927A29.111,29.111,0,0,0,215.462,566.34Z" transform="translate(-205.822 -553.178)"/></g></g><g transform="translate(0 102.956)"><g transform="translate(13.8 15.239)"><path class="d" d="M342.093,643.852c.3.814-.5,1.832-1.747,2.189-4.653,1.368-9.357,2.394-14.09,3.288-2.372.4-4.742.832-7.127,1.142-2.379.367-4.771.616-7.162.885a199.83,199.83,0,0,1-57.457-2.386c-1.181-.221-2.369-.414-3.546-.657l-3.515-.8-3.516-.8c-.585-.138-1.175-.252-1.755-.413l-1.738-.477-6.949-1.913-6.851-2.235a199.646,199.646,0,0,1-26.52-11.156c-4.34-2.054-8.452-4.525-12.631-6.871l-1.561-.89-1.514-.966-3.03-1.93-3.028-1.93c-1-.653-2.038-1.26-3-1.979a256.765,256.765,0,0,1-43.123-37.578c-.867-.936-1.04-2.164-.389-2.743s1.876-.3,2.732.623a253.645,253.645,0,0,0,42.581,37.113c.945.708,1.965,1.306,2.954,1.949l2.986,1.9,2.986,1.9,1.493.953,1.538.878c4.118,2.309,8.168,4.746,12.443,6.767a196.452,196.452,0,0,0,26.109,10.984l6.742,2.2,6.839,1.882,1.709.471c.571.158,1.153.269,1.728.405l3.459.784,3.459.784c1.158.239,2.327.428,3.489.646a196.586,196.586,0,0,0,56.538,2.349c2.351-.265,4.7-.508,7.04-.869,2.345-.3,4.67-.73,7-1.122,4.638-.875,9.265-1.886,13.761-3.208C340.64,642.688,341.793,643.036,342.093,643.852Z" transform="translate(-131.455 -575.337)"/></g><path class="d" d="M135.423,571.237a47.957,47.957,0,0,1,3.511,8.4c.99,3,1.679,5.558,1.679,5.558s-2.345-.865-5.251-2.147c-2.887-1.287-6.419-2.942-8.415-4.633-2.564-2.06-7.909-9.423-3.511-12.817S133.73,568.567,135.423,571.237Z" transform="translate(-121.757 -564.624)"/><g transform="translate(21.306 0.374)"><path class="d" d="M146.824,576.575a65.892,65.892,0,0,1-2.633,10.013c-1.11,3.45-2.116,6.3-2.116,6.3s-1.127-2.186-2.364-5a37.7,37.7,0,0,1-2.856-9.009,21.036,21.036,0,0,1,.656-7.818c.817-2.925,2.368-5.527,4.887-6.077s3.71,1.428,4.245,4.023A25.649,25.649,0,0,1,146.824,576.575Z" transform="translate(-136.729 -564.887)"/></g><g transform="translate(33.298 11.072)"><path class="d" d="M155.772,584.326a71.232,71.232,0,0,1-2.113,10.722c-.935,3.716-1.793,6.8-1.793,6.8s-1.313-2.246-2.775-5.147c-.73-1.451-1.5-3.064-2.162-4.646-.332-.792-.638-1.576-.9-2.329a19.975,19.975,0,0,1-.592-2.206,22.3,22.3,0,0,1,.238-8.271c.687-3.125,2.163-5.951,4.747-6.685s3.923,1.268,4.618,3.962A30.119,30.119,0,0,1,155.772,584.326Z" transform="translate(-145.156 -572.407)"/></g><g transform="translate(46.866 21.706)"><path class="d" d="M165.872,591.954a44.337,44.337,0,0,1-.437,5.286c-.245,1.976-.573,4.1-.892,6.067-.642,3.928-1.251,7.2-1.251,7.2s-1.6-2.2-3.421-5.046c-.223-.359-.454-.726-.687-1.1l-.653-1.193c-.434-.807-.86-1.63-1.257-2.448a33.643,33.643,0,0,1-1.91-4.636,20.982,20.982,0,0,1-.414-8.6c.517-3.349,1.874-6.423,4.5-7.367a2.9,2.9,0,0,1,3.151.533,7.786,7.786,0,0,1,1.943,3.2A27.987,27.987,0,0,1,165.872,591.954Z" transform="translate(-154.691 -579.883)"/></g><g transform="translate(62.275 31.884)"><path class="d" d="M177.313,599.129a42.352,42.352,0,0,1,.037,5.548c-.09,2.121-.263,4.432-.388,6.485-.277,4.145-.576,7.616-.576,7.616l-1.23-1.4a45.189,45.189,0,0,1-2.835-3.551,52.883,52.883,0,0,1-5.625-9.309,24.176,24.176,0,0,1-1.127-9.026c.232-3.507,1.385-6.808,4.05-8.059s4.4.659,5.576,3.448c.286.708.559,1.43.805,2.162s.451,1.491.629,2.226A30.071,30.071,0,0,1,177.313,599.129Z" transform="translate(-165.519 -587.037)"/></g><g transform="translate(79.544 41.274)"><path class="d" d="M190.23,605.57a45.557,45.557,0,0,1,.628,5.78c.068,1.111.118,2.278.168,3.427s.1,2.272.149,3.359c.169,4.363.253,8.029.253,8.029l-1.439-1.336-1.538-1.481c-.575-.563-1.205-1.177-1.827-1.9-1.259-1.411-2.6-2.993-3.818-4.566-.608-.788-1.183-1.573-1.7-2.336a17.347,17.347,0,0,1-1.335-2.236,24.892,24.892,0,0,1-2.108-9.265c-.111-3.667.771-7.212,3.42-8.807s4.628.185,6.122,2.949c.377.68.7,1.464,1.035,2.191s.62,1.5.879,2.246A31.777,31.777,0,0,1,190.23,605.57Z" transform="translate(-177.654 -593.638)"/></g><g transform="translate(1.123 26.136)"><path class="d" d="M135.113,593.517a48.839,48.839,0,0,0,10.474-2.343c1.755-.555,3.331-1.107,4.468-1.521s1.841-.694,1.841-.694-.145-.06-.394-.181l-1.074-.5c-.912-.418-2.187-.989-3.636-1.6a60.822,60.822,0,0,0-9.247-3.212,24.612,24.612,0,0,0-8.134-.252c-3.129.432-6.055,1.555-6.738,4.084s1.5,4.189,4.279,5.167c.349.122.7.233,1.067.336s.751.175,1.128.249c.758.146,1.52.255,2.248.331A24.954,24.954,0,0,0,135.113,593.517Z" transform="translate(-122.546 -582.997)"/></g><g transform="translate(13.439 39.108)"><path class="d" d="M144.838,603.07a29.937,29.937,0,0,0,5.1-1.148c1.883-.565,3.918-1.337,5.725-2.058,3.632-1.46,6.5-2.858,6.5-2.858s-2.432-.891-5.625-1.886a61.435,61.435,0,0,0-9.835-2.827,29.672,29.672,0,0,0-8.638.344c-3.239.636-6.227,1.984-6.779,4.7a3.406,3.406,0,0,0,1.086,3.306,8.978,8.978,0,0,0,3.845,1.821A26.825,26.825,0,0,0,144.838,603.07Z" transform="translate(-131.201 -592.115)"/></g><g transform="translate(27.898 51.977)"><path class="d" d="M156.163,612.661a51.725,51.725,0,0,0,11.08-4.256c1.82-.895,3.441-1.763,4.606-2.405,1.183-.669,1.905-1.1,1.905-1.1l-.47-.118c-.307-.068-.739-.186-1.268-.341-1.066-.3-2.553-.711-4.241-1.137s-3.576-.865-5.436-1.229c-.924-.188-1.863-.329-2.725-.488s-1.686-.285-2.445-.361a28.227,28.227,0,0,0-9.012.987c-3.387.948-6.448,2.6-6.771,5.467s2.4,4.366,5.648,5.016a22.487,22.487,0,0,0,5,.405A27.637,27.637,0,0,0,156.163,612.661Z" transform="translate(-141.362 -601.162)"/></g><g transform="translate(44.845 64.412)"><path class="d" d="M169.3,622.035c3.1-.9,7.595-3.319,11.221-5.569s6.435-4.3,6.435-4.3-2.779-.543-6.412-1.076c-1.809-.277-3.864-.5-5.823-.741a43.447,43.447,0,0,0-5.475-.449,31.139,31.139,0,0,0-9.411,1.906c-3.424,1.233-6.464,3.194-6.56,6.271-.132,3.123,2.94,4.4,6.454,4.768a26.58,26.58,0,0,0,5.322-.04A23.314,23.314,0,0,0,169.3,622.035Z" transform="translate(-153.27 -609.903)"/></g><g transform="translate(64.656 75.819)"><path class="d" d="M184.513,630.734c3.142-1.267,7.572-4.276,11.094-7.022,1.772-1.38,3.309-2.645,4.439-3.649,1.121-.986,1.8-1.616,1.8-1.616l-1.989-.083c-1.22-.088-2.919-.2-4.844-.28s-4.073-.139-6.175-.125a46.569,46.569,0,0,0-5.779.112,24.867,24.867,0,0,0-4.3.929,40.21,40.21,0,0,0-5.339,2.019c-3.464,1.643-6.455,4-6.21,7.227a4.047,4.047,0,0,0,2.328,3.421,11.751,11.751,0,0,0,4.995.942,28.158,28.158,0,0,0,5.6-.592c.879-.181,1.7-.376,2.443-.6S183.978,630.95,184.513,630.734Z" transform="translate(-167.192 -617.922)"/></g><g transform="translate(99.218 49.492)"><path class="d" d="M204.971,611a56.323,56.323,0,0,1,1.382,5.886c.428,2.268.83,4.734,1.191,7.02.7,4.606,1.281,8.406,1.281,8.406s-.165-.1-.451-.319l-1.212-.922c-1.019-.785-2.416-1.886-3.925-3.148-.754-.632-1.537-1.3-2.315-2s-1.524-1.488-2.25-2.243a37.916,37.916,0,0,1-3.707-4.43,24,24,0,0,1-3.3-9.382c-.534-3.827-.011-7.632,2.54-9.6a3.273,3.273,0,0,1,3.573-.56,5.61,5.61,0,0,1,1.594,1.158,10.492,10.492,0,0,1,.746.835c.249.284.494.589.73.912A32.874,32.874,0,0,1,204.971,611Z" transform="translate(-191.479 -599.415)"/></g><g transform="translate(88.063 84.205)"><path class="d" d="M202.264,638.815a34.977,34.977,0,0,0,5.244-3.68c1.866-1.558,3.76-3.356,5.426-5.027,3.341-3.354,5.8-6.291,5.8-6.291s-3.129.164-7.188.563c-2.015.155-4.241.293-6.425.542-1.09.119-2.167.259-3.192.421-.512.081-1.012.166-1.494.259s-.934.159-1.37.252a33.845,33.845,0,0,0-9.7,4.179c-3.469,2.228-6.286,4.958-5.635,8.338.7,3.291,4.36,4.049,8.275,3.672a21.285,21.285,0,0,0,2.957-.488c.988-.245,1.952-.536,2.857-.847A31.1,31.1,0,0,0,202.264,638.815Z" transform="translate(-183.64 -623.817)"/></g><g transform="translate(121.057 55.793)"><path class="d" d="M221.412,614.705a60.136,60.136,0,0,1,2.236,5.978c.761,2.293,1.525,4.8,2.224,7.121l2.529,8.56s-.185-.087-.514-.273l-1.395-.785c-1.173-.67-2.783-1.615-4.531-2.71a55.734,55.734,0,0,1-5.335-3.808c-.861-.683-1.686-1.371-2.442-2.051a19.73,19.73,0,0,1-2.024-2.033,26.815,26.815,0,0,1-4.683-9.3,16.129,16.129,0,0,1-.593-5.76,7.285,7.285,0,0,1,1.971-4.574,3.543,3.543,0,0,1,3.616-1.085,8.3,8.3,0,0,1,3.553,2.581,37.722,37.722,0,0,1,3.169,4.216A36.421,36.421,0,0,1,221.412,614.705Z" transform="translate(-206.826 -603.845)"/></g><g transform="translate(115.004 89.29)"><path class="d" d="M222.307,645.29a36.486,36.486,0,0,0,4.952-4.571c1.722-1.869,3.438-4.009,4.934-5.978,3-3.953,5.129-7.35,5.129-7.35s-3.227.6-7.4,1.581c-2.073.432-4.376.9-6.617,1.471-1.12.277-2.226.583-3.269.885-1.039.274-2.022.566-2.907.878a27.619,27.619,0,0,0-4.359,2.125,44.449,44.449,0,0,0-5.194,3.565c-3.289,2.676-5.893,5.982-4.723,9.372a4.6,4.6,0,0,0,3.5,3.052,13.318,13.318,0,0,0,5.682-.29,27.277,27.277,0,0,0,3.031-.913c.5-.179.985-.371,1.462-.569s.949-.437,1.4-.662A32.729,32.729,0,0,0,222.307,645.29Z" transform="translate(-202.572 -627.391)"/></g><g transform="translate(145.026 59.411)"><path class="d" d="M239.437,616.286a53.959,53.959,0,0,1,3.217,5.833c1.134,2.282,2.3,4.845,3.385,7.116,2.159,4.635,3.938,8.456,3.938,8.456l-2.146-.787-2.314-.9c-.868-.337-1.816-.792-2.806-1.243s-2.022-.955-3.055-1.474-2.069-1.046-3.062-1.662a41.729,41.729,0,0,1-5.243-3.622,19.871,19.871,0,0,1-3.158-3.609,29.234,29.234,0,0,1-3.062-5.383,19.973,19.973,0,0,1-1.013-2.945,14.494,14.494,0,0,1-.44-2.94,7.693,7.693,0,0,1,1.375-5.04c2.1-2.807,4.892-1.792,7.61.535A37.784,37.784,0,0,1,239.437,616.286Z" transform="translate(-223.669 -606.388)"/></g><g transform="translate(145.394 90.671)"><path class="d" d="M244.55,649.262a38.59,38.59,0,0,0,4.464-5.552,79.828,79.828,0,0,0,4.212-6.9c2.506-4.578,4.191-8.444,4.191-8.444l-2.153.779c-1.336.488-3.2,1.229-5.287,1.965-1.044.383-2.147.8-3.27,1.235s-2.267.909-3.387,1.329a56.146,56.146,0,0,0-6.162,2.757,38.682,38.682,0,0,0-9.1,7.295c-3.034,3.3-5.257,7.063-3.528,10.444a4.751,4.751,0,0,0,4.124,2.613,13.968,13.968,0,0,0,5.891-1.065,31.8,31.8,0,0,0,5.833-3.155A30.632,30.632,0,0,0,244.55,649.262Z" transform="translate(-223.928 -628.362)"/></g><g transform="translate(170.9 59.665)"><path class="d" d="M258.781,615.066a63.5,63.5,0,0,1,4.266,5.575c1.541,2.179,3.165,4.582,4.668,6.811l5.5,8.126s-.9-.161-2.357-.457c-1.45-.272-3.464-.789-5.664-1.386l-1.681-.477-1.725-.565c-1.157-.39-2.318-.805-3.444-1.238a39.508,39.508,0,0,1-6.012-2.938,21.083,21.083,0,0,1-3.844-3.242,30.523,30.523,0,0,1-4.019-5.1c-2.338-3.851-3.529-8.147-1.8-11.372,1.726-3.177,4.749-2.589,7.915-.616a31.457,31.457,0,0,1,4.629,3.451A47.575,47.575,0,0,1,258.781,615.066Z" transform="translate(-241.851 -606.566)"/></g><g transform="translate(178.986 87.342)"><path class="d" d="M268.788,649.841a37.486,37.486,0,0,0,3.743-6.48c.6-1.267,1.178-2.589,1.719-3.912.541-1.34,1.043-2.682,1.5-3.968.911-2.579,1.635-4.916,2.122-6.651s.751-2.81.751-2.81l-7.235,4.116c-1.02.572-2.095,1.186-3.189,1.829s-2.21,1.255-3.3,1.911-2.16,1.329-3.169,1.96-1.951,1.263-2.786,1.883a42.694,42.694,0,0,0-8.295,9.023,19.158,19.158,0,0,0-2.867,5.952,6.358,6.358,0,0,0,.867,5.45,5.1,5.1,0,0,0,4.736,2.066,13.851,13.851,0,0,0,5.992-2.063,32.506,32.506,0,0,0,5.6-4.178A35.226,35.226,0,0,0,268.788,649.841Z" transform="translate(-247.533 -626.022)"/></g></g><g transform="translate(13.095 6.614)"><path class="c" d="M323.265,664.157c.606-.871,10.172-14.988,5.053-25.929-3.319-7.1-11.53-10.109-22.194-14.022-12.877-4.724-16.236-2.657-20.071-6.83-7.255-7.892,2.059-18.22-3.959-26.47-7.371-10.1-25.272.006-36-9.995-9.391-8.751-.636-21.112-8.73-33.076-7.986-11.8-22.41-2.424-38.579-13.921-11.574-8.228-7.209-14.17-20.57-24.733-3.95-3.124-21.932-17.34-37.128-10.39-6.169,2.822-10.462,6.282-10.105,11.692.347,5.237,5.058,13.61,21.373,20.748,12.177,5.329,12.745,5.781,14.4,7.621,10.109,11.268-9.342,29.531-1.323,42.5,7.384,11.948,28.963.387,41.36,12.88,13.673,13.777-4.239,36.243,9.589,48.889,11.82,10.809,31.61.521,40.406,12.746,6.429,8.936-1.833,17.644,4.318,24.378C271.144,691.251,308.729,685.041,323.265,664.157Z" transform="translate(-130.959 -496.9)"/><path class="d" d="M143.45,510.422a1.018,1.018,0,0,1-.377-1.35.92.92,0,0,1,1.309-.3A483.211,483.211,0,0,1,226.767,573.3c-1.937-3.33-3.745-6.737-5.4-10.187a145.881,145.881,0,0,1-7.581-19.109.922.922,0,0,1,.615-1.195,1.022,1.022,0,0,1,1.215.7,143.576,143.576,0,0,0,7.472,18.833c2.627,5.463,9.068,16.179,9.09,16.313q2.86,2.874,5.671,5.8,4.4,4.579,8.689,9.288,2.354,2.576,4.669,5.191,1.575,1.782,3.135,3.576-.707-1.489-1.314-3.027a47.477,47.477,0,0,1-3.075-12.726.9.9,0,0,1,.861-1.016,1.041,1.041,0,0,1,1.056.937,45.35,45.35,0,0,0,2.941,12.174c1.925,4.892,8.4,13.911,8.395,14.16h0a488.837,488.837,0,0,1,31.871,43.55.956.956,0,0,1-.245,1.34h0a.989.989,0,0,1-1.34-.333q-10.562-16.251-22.426-31.647h0c-.144-.04-14.4-11.244-27.982-10.833a34.888,34.888,0,0,0-16.2,4.6.988.988,0,0,1-1.326-.391.956.956,0,0,1,.306-1.326,36.691,36.691,0,0,1,17.048-4.837c10.067-.306,18.36,3.609,23.765,7.168l-.006-.007q-10.3-12.976-21.44-25.2a41.651,41.651,0,0,0-9.275-6.594,39.3,39.3,0,0,0-21.737-4.318,1.031,1.031,0,0,1-1.093-.886.909.909,0,0,1,.81-1.061,41.236,41.236,0,0,1,22.814,4.534c.507.265,1.009.536,1.5.824-.573-.606-1.153-1.213-1.732-1.815q-12.06-12.547-24.985-24.181a1.013,1.013,0,0,1-.6-.3,34.6,34.6,0,0,0-12.691-8.221,31.727,31.727,0,0,0-18.081-1.152,1.025,1.025,0,0,1-1.193-.74.921.921,0,0,1,.657-1.169,33.647,33.647,0,0,1,19.17,1.225c.535.2,1.066.407,1.592.63h0A480.45,480.45,0,0,0,143.45,510.422Z" transform="translate(-125.886 -491.95)"/></g></g><g transform="translate(147.948 0.011)"><g transform="translate(11.27 201.17)"><g transform="translate(0 300.301)"><g transform="translate(0 53.4)"><path class="e" d="M249.921,682.874l34.374-21.846s4.07-.2,5.022,15.661v20.479H284.4V682.874L278.9,697.168H233.748S231.3,687.521,249.921,682.874Z" transform="translate(-233.642 -661.028)"/></g><path class="f" d="M284.885,623.49l-10.272,53.4H256.527l3.094-52.119Z" transform="translate(-223.96 -623.49)"/><path class="f" d="M263.918,655.484l-18.837,29.733H263a16.558,16.558,0,0,0,16.557-16.906l-.105-4.939Z" transform="translate(-228.802 -609.971)"/></g><g transform="translate(134.939 297.306)"><path class="e" d="M334.318,658.09s-6.135-.229-5.843,11.44,0,28.879,0,28.879h5.843V678.249l17.5,20.161h56.521s.384-11.086-27.922-10.793Z" transform="translate(-328.465 -605.875)"/><path class="f" d="M333.442,673.6l-2.907-52.215h24.324L356.93,673.6l25.161,29.784h-13.23a24.817,24.817,0,0,1-16.721-6.46C345.955,691.3,337.633,682.642,333.442,673.6Z" transform="translate(-327.589 -621.385)"/></g><g transform="translate(13.249)"><path class="g" d="M361.265,412.392S398.926,464.341,410.83,744.5H349.616L336.182,518.885,307,746.1l-64.052-2.317s25.079-276.961,62.3-331.387Z" transform="translate(-242.952 -412.392)"/><g transform="translate(56.361 11.366)"><path class="h" d="M308.466,503.313l6.544-40.7,16.4-13.366" transform="translate(-271.597 -408.185)"/><line class="h" x2="66.919"/></g></g></g><g transform="translate(0 61.144)"><g transform="translate(111.178)"><g transform="translate(0 45.328)"><path class="f" d="M334.188,394.907l35.234,23.383a12.3,12.3,0,0,0,17.6-5.468h0a12.288,12.288,0,0,0-3.878-14.9l-53.574-41.259Z" transform="translate(-292.965 -341.241)"/><path class="i" d="M304,360.945s-2.671,11.654,14.148,23.64l28.323,18.236L367.1,372.063l-21.928-16.67S309.785,330.536,304,360.945Z" transform="translate(-303.848 -345.824)"/></g><g transform="translate(69.49)"><path class="f" d="M396.391,332.149l11.315,2.565L379.018,420.58a13.372,13.372,0,0,1-19.065,8.628h0a13.366,13.366,0,0,1-6.064-17.446Z" transform="translate(-352.68 -306.274)"/><g transform="translate(43.585)"><path class="f" d="M383.688,337.378l.643-2.945a25.848,25.848,0,0,1,5.205-10.8l4.5-5.529a2.74,2.74,0,0,1,4.184-.078h0a3.5,3.5,0,0,1,.5,3.894l-3.411,6.756,21.8-14.339a2.124,2.124,0,0,1,3.094.761l.4.761a2.119,2.119,0,0,1-.548,2.629l-14.316,10.171,18.061-9.409a2.122,2.122,0,0,1,3.033.952l.256.575a2.119,2.119,0,0,1-.841,2.682l-15.5,9.217,13.3-4.413a2.122,2.122,0,0,1,2.833,1.707l.036.27a2.12,2.12,0,0,1-1.205,2.208l-13.492,5.569,7.6-1.266a2.121,2.121,0,0,1,2.741,2.323h0a2.121,2.121,0,0,1-1.274,1.653l-34.185,13.6-2.818-7.845A16.5,16.5,0,0,1,383.688,337.378Z" transform="translate(-383.307 -313.96)"/><path class="h" d="M392.182,324.307a13.938,13.938,0,0,1-1.486,11.757" transform="translate(-380.181 -309.588)"/></g></g></g><g transform="translate(56.257 38.966)"><path class="i" d="M278.066,346.08l36.692-4.729,31.8,8.4a12.378,12.378,0,0,1,6.693,4.434c5.526,7.208,16.947,25,13.478,45.233l-14.9,42.988H294.91l-29.656-70.894L270.4,353.08A9.576,9.576,0,0,1,278.066,346.08Z" transform="translate(-265.254 -341.351)"/><path class="f" d="M282.473,344.573l25-3.222,22.094,5.839-4.173,21.139Z" transform="translate(-257.97 -341.351)"/><path class="h" d="M332.787,359.644a44.119,44.119,0,0,1,5.369,32.049" transform="translate(-236.684 -333.621)"/></g><g transform="translate(0 43.675)"><g transform="translate(5.462 65.526)"><path class="f" d="M315.541,419.808l-19.169-6.035,1.015-3.995a3.43,3.43,0,0,0-1.511-3.763,3.139,3.139,0,0,0-3.978.568l-14.064,15.748L267.341,434.47c10.128,6.458,20.035,6.643,23.132,4.585.411.073,15.446,2.559,15.446,2.559a2.591,2.591,0,0,0,3.148-1.794c.3-.994.223-2.5-2.624-3.463l2.848.963a2.691,2.691,0,0,0,3.289-1.93c.394-1.3-.579-2.773-2.288-3.566l2.142.5a2.777,2.777,0,0,0,3.445-2.285,3.06,3.06,0,0,0-2.072-3.339l-3.144-1.058,3.583.314a3.022,3.022,0,0,0,3.552-2.64A3.317,3.317,0,0,0,315.541,419.808Z" transform="translate(-213.576 -384.459)"/><path class="f" d="M293.81,430.687l-47.835-39.963L229.56,411.538l56.435,30.646Z" transform="translate(-229.56 -390.724)"/><line class="h" x1="11.411" y1="2.982" transform="translate(85.674 38.198)"/><line class="h" x1="12.052" y1="3.493" transform="translate(85.167 44.003)"/><line class="h" x1="9.602" y1="2.509" transform="translate(84.138 49.751)"/></g><path class="f" d="M255.981,370.281,228.388,402.32a12.287,12.287,0,0,0,3.239,18.139h0a12.3,12.3,0,0,0,15.268-1.994l46.2-48.184Z" transform="translate(-225.722 -333.836)"/><g transform="translate(26.777)"><path class="i" d="M291.385,345.166s-11.235-4.1-25.224,11.093l-21.623,25.824L272.5,406.364l19.274-19.677S320.851,354.684,291.385,345.166Z" transform="translate(-244.538 -344.662)"/><line class="h" y1="13.326" x2="12.283" transform="translate(39.651 36.444)"/></g></g></g><g transform="translate(24.376)"><g transform="translate(0)"><path class="e" d="M21.616.011a21.6,21.6,0,1,1-21.6,21.6A21.611,21.611,0,0,1,21.616.011Z" transform="translate(0 16.67) rotate(-22.721)"/><ellipse class="a" cx="14.863" cy="14.868" rx="14.863" ry="14.868" transform="translate(34.527 45.362) rotate(-80.752)"/></g><path class="g" d="M324.476,327.882a10.135,10.135,0,0,1-5.96-18.335l.619.848a9.088,9.088,0,1,0,9.863-.531l.522-.91a10.136,10.136,0,0,1-5.045,18.929Z" transform="translate(-212.609 -254.932)"/><ellipse class="e" cx="35.716" cy="34.076" rx="35.716" ry="34.076" transform="matrix(0.999, -0.037, 0.037, 0.999, 40.813, 5.022)"/><path class="f" d="M316.006,311.4a9.242,9.242,0,1,0,5.739-11.739A9.242,9.242,0,0,0,316.006,311.4Z" transform="translate(-212.116 -259.071)"/><path class="f" d="M315.749,326.257l.567,35.232-25.091-.535,7.794-53.44Z" transform="translate(-222.386 -255.54)"/><path class="e" d="M314.693,339.895l-20.265-20.69,19.966,2.112Z" transform="translate(-221.031 -250.599)"/><path class="f" d="M332.628,284.6a13.487,13.487,0,0,1,4.692,7.55c2.09,8.769,6.13,24.2,3.346,33.695-3.622,12.342-13.21,21.351-29.328,18.895,0,0-19.253-1.235-24.087-25.377C279.551,280.9,312.06,268.473,332.628,284.6Z" transform="translate(-224.557 -268.134)"/><g transform="translate(74.801 26.375)"><path class="e" d="M316.985,292.028s-1.013,2.35,2.788,2.832a22.05,22.05,0,0,1,5.287,1.1,2.423,2.423,0,0,0,2.533-.585h0a1.592,1.592,0,0,0,.016-1.707,5.723,5.723,0,0,0-5-3.741C318.1,289.309,316.985,292.028,316.985,292.028Z" transform="translate(-286.341 -289.384)"/><path class="e" d="M314.969,291.408s1.292,2.63-4.151,3.088a81.917,81.917,0,0,0-11.407,2.114,4.066,4.066,0,0,1-3.569-.7h0a1.191,1.191,0,0,1,.088-1.895,25.324,25.324,0,0,1,11.508-4.4C313.888,289.017,314.969,291.408,314.969,291.408Z" transform="translate(-295.415 -289.519)"/><g transform="translate(3.88 12.557)"><g transform="translate(0 0.133)"><path class="a" d="M314.983,302.257s-6.31-7.715-16.842-1.212C298.141,301.045,304.219,309,314.983,302.257Z" transform="translate(-298.141 -298.439)"/><g class="j"><path class="e" d="M309.211,301.144a3.578,3.578,0,1,1-4.161-2.879A3.579,3.579,0,0,1,309.211,301.144Z" transform="translate(-296.461 -298.538)"/></g></g><path class="h" d="M298.141,301.085a13.807,13.807,0,0,1,7.813-2.738,11.564,11.564,0,0,1,9.029,3.95" transform="translate(-298.141 -298.346)"/></g><g transform="translate(30.117 11.697)"><g transform="translate(0 0.142)"><path class="a" d="M316.578,301.966s4.793-7.85,10.593-1.893C327.171,300.073,322.494,308.152,316.578,301.966Z" transform="translate(-316.578 -297.841)"/><g class="k"><path class="e" d="M318.5,300.669c-.44,1.926.273,3.731,1.592,4.033s2.745-1.016,3.186-2.942-.273-3.731-1.592-4.031S318.938,298.744,318.5,300.669Z" transform="translate(-315.82 -297.906)"/></g></g><path class="l" d="M327.171,300.115a5.453,5.453,0,0,0-4.54-2.367c-3.839.324-6.054,4.261-6.054,4.261" transform="translate(-316.578 -297.741)"/></g><path class="h" d="M315.52,303.842l2.574,3.992-2.1,1.588" transform="translate(-286.909 -283.466)"/></g><path class="e" d="M293.009,314.528l.637-30.726-13.775,13.412.882,13.016Z" transform="translate(-227.19 -265.559)"/><path class="e" d="M296.613,273.6s32.161-1.306,36.257,20.3c0,0-12.672-2.269-20.932-16.5Z" transform="translate(-220.107 -269.879)"/><path class="e" d="M322.272,276.259s1.484,17.714-39.036,26.094l1.854-17.118,22.812-8.976Z" transform="translate(-225.766 -268.747)"/><g transform="translate(65.537 45.596)"><g transform="translate(5.923 2.685)"><path class="c" d="M338.611,309.81l-6.185-2.158c-6.671-3.107-6.008-3.619-18.315-1.262l-19.7,4.879s-5.739,12.7,6.493,19.986c15.656,9.322,38.465-2,37.809-19.749Q338.685,310.676,338.611,309.81Z" transform="translate(-293.067 -304.918)"/></g><line class="m" x1="10.842" y1="14.604" transform="translate(0.612)"/><line class="m" y1="3.909" x2="7.862" transform="translate(0 10.695)"/></g><g transform="translate(48.051 43.593)"><g transform="translate(1.705)"><path class="f" d="M278.329,314.106a9.424,9.424,0,1,0,5.853-11.971A9.426,9.426,0,0,0,278.329,314.106Z" transform="translate(-277.815 -301.622)"/><path class="h" d="M280.934,306.135a10.3,10.3,0,0,1,9.7,5.739" transform="translate(-276.496 -299.72)"/></g><path class="g" d="M286.756,330.931a10.135,10.135,0,0,1-5.958-18.337l.618.849a9.087,9.087,0,1,0,9.863-.532L291.8,312a10.136,10.136,0,0,1-5.046,18.929Z" transform="translate(-276.617 -297.236)"/></g></g></g></g></svg>