<svg xmlns="http://www.w3.org/2000/svg" width="601" height="436.055" viewBox="0 0 601 436.055"><defs><style>.a{fill:#f5f5f5;}.b{fill:#e0e0e0;}.c{fill:#ebebeb;}.d{fill:#fafbfb;}.e{fill:#263238;}.f{fill:#ff4f5b;}.g{fill:#2563eb;}.h{fill:#fff;}.i{fill:#375a64;}.j{fill:none;}.k{fill:#fbbf24;}.l{fill:#455a64;}.m{fill:#ffbf9d;}.n{opacity:0.2;}.o{fill:#ff9a6c;}</style></defs><g transform="translate(0 0)"><g transform="translate(360.246 49.337)"><rect class="a" width="56.278" height="77.031" transform="translate(0 0)"/></g><g transform="translate(374.51 59.034)"><rect class="b" width="56.278" height="77.031" transform="translate(0 0)"/></g><g transform="translate(133.968 45.109)"><g transform="translate(0 0)"><path class="c" d="M171.205,38.65s.119.01.362.014l1.089.014,4.239.028,15.9.057,54.874.085h.148l.043-.143a13.637,13.637,0,0,0-13.455-17.459l.2.263a11.577,11.577,0,0,0,.425-3.686A12.146,12.146,0,0,0,228.75,7.585a12.416,12.416,0,0,0-11.626.063l.284.1a18.1,18.1,0,0,0-10.649-9.921,16.988,16.988,0,0,0-13.5.637A18.416,18.416,0,0,0,184.9,7.6a17.453,17.453,0,0,0-1.028,10.95l.153-.174a13.051,13.051,0,0,0-6.353.91,13.275,13.275,0,0,0-4.712,3.231,8.447,8.447,0,0,0-1.485,2.128,11.976,11.976,0,0,0-.79,2.261,20.127,20.127,0,0,0-.54,4.129,23.423,23.423,0,0,0,.495,5.708,12.876,12.876,0,0,0,.393,1.439c.111.32.171.471.171.471" transform="translate(-170.133 3.264)"/></g></g><g transform="translate(5.825 127.57)"><path class="d" d="M103.884,67.244,75.245,62.484l-4.539,4.992,2.649,3.508,2.41.4,1.829-2.123L78.845,71.9l4.14.688,3-3.485,2.052,4.324,4.816.8,3-3.483,2.052,4.324,3.843.639h.006a14.016,14.016,0,1,0,2.125-8.459Zm17.345,12.477a4.024,4.024,0,1,1,4.627-3.31A4.025,4.025,0,0,1,121.229,79.722Z" transform="translate(-70.706 -60.702)"/></g><g transform="translate(0 245.581)"><g transform="translate(4.043)"><path class="c" d="M132.667,154.507l-1.727,31.768a2.145,2.145,0,0,1-2.125,2.029l-57.15.419a2.145,2.145,0,0,1-2.16-2.13l-.182-24.728a2.145,2.145,0,0,1,2.142-2.161l35.15-.031a2.142,2.142,0,0,0,1.513-.628l6.065-6.063a2.142,2.142,0,0,1,1.5-.628l14.816-.11A2.145,2.145,0,0,1,132.667,154.507Z" transform="translate(-69.323 -152.246)"/></g><g transform="translate(4 3.265)"><rect class="a" width="62.445" height="37.324" transform="matrix(-1, 0.007, -0.007, -1, 62.717, 37.322)"/></g><g transform="translate(0 5.041)"><path class="c" d="M137.621,157.693l-4.482,38.956a1.377,1.377,0,0,1-1.36,1.221l-60.855.446a1.378,1.378,0,0,1-1.383-1.261l-3.35-38.9a1.38,1.38,0,0,1,1.364-1.5l68.688-.5A1.378,1.378,0,0,1,137.621,157.693Z" transform="translate(-66.186 -156.156)"/></g></g><g transform="translate(14.014 323.287)"><path class="c" d="M137.645,312.491c14.488-10.125,17.774-28.915,17.2-45.808-.1-2.819.214-5.792-1.126-8.266s-4.47-4.164-6.994-2.975c-2.093.985-3.006,3.421-4.177,5.435a16.49,16.49,0,0,1-6.61,6.317c-1.8.931-4.016,1.5-5.788.523-2.432-1.342-2.718-4.7-2.7-7.507q.05-7.841.1-15.68a26.154,26.154,0,0,0-.845-8.329c-.873-2.662-2.8-5.135-5.466-5.881s-5.966.79-6.529,3.536a26.016,26.016,0,0,0-.079,3.491,2.954,2.954,0,0,1-1.726,2.777c-1.119.329-2.241-.467-3.079-1.287-2.895-2.832-4.858-6.479-6.693-10.107s-3.616-7.342-6.242-10.429-6.259-5.537-10.273-5.764-8.294,2.251-9.308,6.194S78.6,226.7,81.1,229.9a62.579,62.579,0,0,0,13.03,12.423,5.159,5.159,0,0,1,2.179,2.344c.608,1.871-1.163,3.727-3.008,4.342-2.089.7-4.357.478-6.543.736s-4.555,1.222-5.381,3.289c-1.148,2.866,1.248,5.871,3.606,7.838a53.618,53.618,0,0,0,15.867,9.162c2.062.755,4.232,1.417,5.9,2.866s2.667,3.971,1.661,5.945-3.584,2.609-5.744,2.208-4.093-1.574-6.153-2.35c-3.852-1.454-8.828-1.189-11.3,2.141a8.878,8.878,0,0,0-.943,7.848,20.473,20.473,0,0,0,4.249,6.93,53.926,53.926,0,0,0,23.02,16.181c8.937,3.1,17.219,3.938,26.1.69" transform="translate(-77.06 -212.524)"/><g transform="translate(4.297 2.361)"><path class="b" d="M136.9,324.484a123.218,123.218,0,0,0-4.58-23.113,251.459,251.459,0,0,0-9.973-27.054l-2.978-6.957c-.982-2.28-1.956-4.543-3.047-6.7a125.464,125.464,0,0,0-6.971-12.017c-2.4-3.715-4.816-7.153-7.1-10.35s-4.48-6.132-6.59-8.724A99.427,99.427,0,0,0,84.81,218.093c-1.383-1.25-2.487-2.185-3.245-2.808l-.865-.7a2.194,2.194,0,0,0-.305-.226,1.882,1.882,0,0,0,.272.267l.833.743c.733.648,1.816,1.608,3.177,2.879A105.205,105.205,0,0,1,95.384,229.8c2.087,2.6,4.254,5.542,6.524,8.743s4.664,6.648,7.05,10.361a127.1,127.1,0,0,1,6.917,11.985c1.08,2.144,2.044,4.387,3.027,6.675s1.969,4.606,2.975,6.954a257.682,257.682,0,0,1,9.991,26.987,125.317,125.317,0,0,1,4.673,23.011" transform="translate(-80.394 -214.356)"/></g><g transform="translate(40.066 17.796)"><path class="b" d="M108.162,257.182a5.693,5.693,0,0,0,.273-1.2c.148-.775.323-1.9.521-3.3.4-2.792.812-6.666,1.254-10.94s.912-8.134,1.351-10.912c.215-1.39.4-2.513.539-3.287a5.663,5.663,0,0,0,.156-1.217,5.547,5.547,0,0,0-.352,1.174c-.2.764-.441,1.881-.7,3.267-.532,2.773-1.062,6.64-1.5,10.919-.425,4.219-.811,8.035-1.1,10.951-.14,1.316-.26,2.425-.357,3.316A5.582,5.582,0,0,0,108.162,257.182Z" transform="translate(-108.147 -226.329)"/></g><g transform="translate(4.034 41.873)"><path class="b" d="M80.19,245.043a7.891,7.891,0,0,0,1.438.171c.925.082,2.264.195,3.913.385,3.3.357,7.845,1.009,12.826,1.948s9.452,2,12.664,2.85c1.61.415,2.9.786,3.8,1.038a7.9,7.9,0,0,0,1.407.345,7.766,7.766,0,0,0-1.347-.54c-.88-.311-2.161-.736-3.762-1.2-3.2-.946-7.671-2.056-12.667-3.009a127.021,127.021,0,0,0-12.886-1.8c-1.659-.146-3.006-.2-3.937-.222A7.561,7.561,0,0,0,80.19,245.043Z" transform="translate(-80.19 -245.006)"/></g><g transform="translate(55.78 42.665)"><path class="b" d="M120.343,291.669a1.907,1.907,0,0,0,.247-.44c.166-.353.37-.784.616-1.3.53-1.134,1.254-2.8,2.123-4.863,1.739-4.13,3.962-9.912,6.328-16.324s4.534-12.209,6.185-16.369c.808-2.023,1.474-3.686,1.968-4.923l.528-1.342a1.807,1.807,0,0,0,.152-.483,1.883,1.883,0,0,0-.247.441c-.166.353-.37.783-.616,1.3-.53,1.136-1.254,2.8-2.123,4.864-1.739,4.13-3.962,9.911-6.329,16.326s-4.533,12.207-6.184,16.368c-.809,2.021-1.474,3.686-1.968,4.922l-.528,1.343A1.825,1.825,0,0,0,120.343,291.669Z" transform="translate(-120.34 -245.62)"/></g><g transform="translate(7.883 73.268)"><path class="b" d="M83.176,269.364a2.024,2.024,0,0,0,.476.2l1.392.467,5.128,1.662c4.332,1.405,10.29,3.415,16.872,5.643s12.569,4.187,16.93,5.5c2.179.659,3.949,1.173,5.18,1.5l1.418.373a1.91,1.91,0,0,0,.505.1,1.983,1.983,0,0,0-.476-.2c-.374-.124-.834-.278-1.391-.465l-5.129-1.662c-4.33-1.405-10.29-3.415-16.875-5.644s-12.565-4.186-16.926-5.5c-2.181-.659-3.949-1.174-5.18-1.5l-1.419-.373A1.834,1.834,0,0,0,83.176,269.364Z" transform="translate(-83.176 -269.359)"/></g></g><g transform="translate(15.663 435.571)"><path class="e" d="M78.339,299.866c0,.134,121.041.242,286.21.242,165.228,0,299.127-.108,299.127-.242s-133.9-.242-299.127-.242C199.38,299.624,78.339,299.732,78.339,299.866Z" transform="translate(-78.339 -299.624)"/></g><g transform="translate(65.235 380.482)"><g transform="translate(10.007 0)"><path class="f" d="M133.989,279.693c-1.628,2.092-4.543,1.225-5.844-.168a11.05,11.05,0,0,1-2.217-5.2c-.991-4.241-1.982-8.687-.874-12.9a7.139,7.139,0,0,1,1.815-3.4,3.722,3.722,0,0,1,3.586-1c1.468.468,2.319,1.972,2.917,3.393a30.59,30.59,0,0,1,2.357,13.27,10.613,10.613,0,0,1-1.74,6" transform="translate(-124.567 -256.891)"/></g><g transform="translate(10.007 0)"><path class="g" d="M133.989,279.693c-1.628,2.092-4.543,1.225-5.844-.168a11.05,11.05,0,0,1-2.217-5.2c-.991-4.241-1.982-8.687-.874-12.9a7.139,7.139,0,0,1,1.815-3.4,3.722,3.722,0,0,1,3.586-1c1.468.468,2.319,1.972,2.917,3.393a30.59,30.59,0,0,1,2.357,13.27,10.613,10.613,0,0,1-1.74,6" transform="translate(-124.567 -256.891)"/></g><g transform="translate(0 31.982)"><path class="g" d="M129.989,283.216a13.172,13.172,0,0,0-8.113-1.4,6.792,6.792,0,0,0-4.123,1.6c-1.065,1.062-1.355,3.01-.246,4.025a3.866,3.866,0,0,0,2.511.774c2.159.085,4.573-.174,6.23,1.212.946.79,1.539,2.055,2.7,2.479a2.785,2.785,0,0,0,3.128-1.207,4.759,4.759,0,0,0,.523-3.49A5.363,5.363,0,0,0,129.989,283.216Z" transform="translate(-116.803 -281.699)"/></g><g transform="translate(22.066 8.154)"><path class="g" d="M135.3,281.188a7.9,7.9,0,0,1-.861-7.325,14.016,14.016,0,0,1,4.615-6.022,23.183,23.183,0,0,1,7.93-4.156,8.229,8.229,0,0,1,3.494-.414,3.642,3.642,0,0,1,2.817,1.907c.732,1.587-.139,3.423-1.058,4.91a58.806,58.806,0,0,1-5.447,7.449c-1.615,1.878-3.449,3.719-5.8,4.485s-4.751.541-5.894-1.123" transform="translate(-133.924 -263.216)"/></g><g transform="translate(7.553 35.019)"><path class="e" d="M132.989,304.562a4.764,4.764,0,0,1-.088-.993c-.034-.721-.076-1.626-.126-2.7a38.751,38.751,0,0,0-.4-3.976,30.49,30.49,0,0,0-1.2-4.729,17.213,17.213,0,0,0-2.164-4.333,8.9,8.9,0,0,0-2.879-2.652,8.45,8.45,0,0,0-2.491-.915,4.751,4.751,0,0,1-.974-.192,4.674,4.674,0,0,1,1,.035,7.661,7.661,0,0,1,2.6.821,8.851,8.851,0,0,1,3.043,2.68,16.827,16.827,0,0,1,2.248,4.423,28.541,28.541,0,0,1,1.184,4.8,33.51,33.51,0,0,1,.322,4.021c.027,1.147.013,2.073,0,2.714A4.694,4.694,0,0,1,132.989,304.562Z" transform="translate(-122.663 -284.056)"/></g><g transform="translate(15.006 8.734)"><path class="e" d="M131.238,308.378a1.956,1.956,0,0,1,0-.459c.018-.343.041-.776.07-1.307.061-1.134.143-2.777.184-4.809.1-4.061.039-9.677-.325-15.865s-.99-11.774-1.61-15.788c-.143-1.006-.293-1.912-.438-2.706s-.25-1.481-.367-2.037l-.241-1.287a1.99,1.99,0,0,1-.058-.455,1.9,1.9,0,0,1,.138.436c.082.335.188.755.316,1.272.142.553.28,1.235.437,2.028s.336,1.7.5,2.7a148.478,148.478,0,0,1,1.731,15.81c.365,6.2.385,11.832.206,15.9-.079,2.034-.2,3.678-.314,4.81-.059.53-.107.962-.146,1.3A1.878,1.878,0,0,1,131.238,308.378Z" transform="translate(-128.446 -263.666)"/></g><g transform="translate(18.308 13.03)"><path class="e" d="M131.018,296.583a8.681,8.681,0,0,1,.079-1.365c.094-.875.28-2.139.6-3.68a48.813,48.813,0,0,1,1.477-5.332,47.785,47.785,0,0,1,2.576-6.267,34.036,34.036,0,0,1,7.141-9.977,16.767,16.767,0,0,1,1.63-1.369c.249-.19.47-.38.693-.53l.626-.385a8.623,8.623,0,0,1,1.186-.678,40.814,40.814,0,0,0-3.939,3.173,35.866,35.866,0,0,0-6.974,9.947,51.068,51.068,0,0,0-2.587,6.207c-.691,1.952-1.175,3.754-1.55,5.274-.36,1.525-.586,2.773-.728,3.638A8.932,8.932,0,0,1,131.018,296.583Z" transform="translate(-131.008 -266.999)"/></g></g><g transform="translate(377.617 70.589)"><g transform="translate(6.31 0)"><g transform="translate(0.227 0.275)"><rect class="h" width="56.278" height="77.031"/></g><path class="e" d="M364.277,93.787s.009-.133.015-.379c0-.263.008-.623.016-1.089.008-.976.018-2.384.034-4.21.018-3.687.045-9.047.079-15.824.041-13.556.1-32.78.166-55.528l-.254.254,56.271.067h.006l-.281-.281c0,28.773,0,55.411,0,77.031l.228-.228-40.866.09-11.373.05-3,.023c-.68.008-1.043.024-1.043.024s.329.017.994.026l2.954.028,11.321.067,41.009.148h.229v-.231c.03-21.62.067-48.257.107-77.029v-.282H420.6c-20.185,0-39.323-.009-56.271-.014h-.255v.255c.036,22.816.066,42.1.086,55.694.024,6.752.044,12.092.057,15.766.012,1.8.022,3.2.028,4.159.005.455.01.806.013,1.062A2.811,2.811,0,0,0,364.277,93.787Z" transform="translate(-364.077 -16.501)"/><g transform="translate(22.105 15.482)"><path class="e" d="M381.228,28.782c0,.155,6.122.285,13.673.291s13.676-.116,13.676-.272-6.122-.285-13.676-.29S381.228,28.627,381.228,28.782Z" transform="translate(-381.228 -28.511)"/></g><g transform="translate(7.308 22.17)"><path class="e" d="M369.747,33.965c0,.155,9.434.287,21.07.3s21.071-.111,21.071-.267-9.432-.287-21.071-.3S369.747,33.81,369.747,33.965Z" transform="translate(-369.747 -33.699)"/></g><g transform="translate(7.302 29.153)"><path class="e" d="M369.743,39.382c0,.155,9.434.287,21.07.3s21.071-.11,21.071-.266-9.432-.287-21.071-.3S369.743,39.226,369.743,39.382Z" transform="translate(-369.743 -39.116)"/></g><g transform="translate(7.297 36.135)"><path class="e" d="M369.739,44.8c0,.155,9.434.287,21.07.3s21.071-.111,21.071-.266-9.432-.287-21.071-.3S369.74,44.643,369.739,44.8Z" transform="translate(-369.739 -44.532)"/></g><g transform="translate(7.292 43.118)"><path class="e" d="M369.735,50.215c0,.156,9.434.289,21.07.3s21.071-.111,21.071-.266-9.432-.287-21.071-.3S369.736,50.06,369.735,50.215Z" transform="translate(-369.735 -49.949)"/></g><g transform="translate(7.288 50.102)"><path class="e" d="M369.732,55.632c0,.156,9.433.287,21.068.3s21.071-.111,21.071-.266-9.432-.287-21.071-.3S369.732,55.477,369.732,55.632Z" transform="translate(-369.732 -55.366)"/></g><g transform="translate(7.283 57.085)"><path class="e" d="M369.728,61.049c0,.155,9.434.287,21.068.3s21.071-.111,21.072-.266-9.433-.289-21.071-.3S369.728,60.894,369.728,61.049Z" transform="translate(-369.728 -60.783)"/></g><g transform="translate(26.767 64.075)"><path class="e" d="M384.846,66.478c0,.155,5.07.284,11.325.289s11.326-.117,11.326-.273-5.07-.284-11.326-.289S384.846,66.322,384.846,66.478Z" transform="translate(-384.846 -66.205)"/></g></g><g transform="translate(0 60.018)"><ellipse class="g" cx="11.431" cy="11.434" rx="11.431" ry="11.434"/><g transform="translate(4.808 6.971)"><path class="b" d="M362.979,68.52c-.49.458,1.755,3.657,5.014,7.147.525.561,1.043,1.1,1.536,1.586l.791.785.786-.66c2.844-2.389,4.7-4.437,4.359-4.881s-2.786.859-5.8,3.031l1.578.124c-.456-.526-.954-1.079-1.478-1.641C366.507,70.521,363.467,68.063,362.979,68.52Z" transform="translate(-362.912 -68.465)"/></g></g></g><g transform="translate(416.31 147.435)"><path class="e" d="M389.445,80.771a5.8,5.8,0,0,0,.242-2.329,5.8,5.8,0,0,0-.242-2.329,5.805,5.805,0,0,0-.242,2.329A5.805,5.805,0,0,0,389.445,80.771Z" transform="translate(-389.203 -76.112)"/><g transform="translate(0 38.968)"><path class="e" d="M389.445,111a5.8,5.8,0,0,0,.242-2.328,5.8,5.8,0,0,0-.242-2.329,5.8,5.8,0,0,0-.242,2.329A5.8,5.8,0,0,0,389.445,111Z" transform="translate(-389.203 -106.34)"/></g><g transform="translate(0 48.284)"><path class="e" d="M389.445,118.226a11.315,11.315,0,0,0,0-4.659,11.321,11.321,0,0,0,0,4.659Z" transform="translate(-389.203 -113.567)"/></g><g transform="translate(0 57.602)"><path class="e" d="M389.445,125.454a11.316,11.316,0,0,0,0-4.659,11.321,11.321,0,0,0,0,4.659Z" transform="translate(-389.203 -120.795)"/></g><g transform="translate(0 9.318)"><path class="e" d="M389.445,88a5.8,5.8,0,0,0,.242-2.328,5.8,5.8,0,0,0-.242-2.329,5.8,5.8,0,0,0-.242,2.329A5.8,5.8,0,0,0,389.445,88Z" transform="translate(-389.203 -83.34)"/></g><g transform="translate(0 18.634)"><path class="e" d="M389.445,95.226a5.8,5.8,0,0,0,.242-2.329,5.8,5.8,0,0,0-.242-2.329A5.805,5.805,0,0,0,389.2,92.9,5.805,5.805,0,0,0,389.445,95.226Z" transform="translate(-389.203 -90.567)"/></g><g transform="translate(0 29.241)"><path class="e" d="M389.445,103.454a5.8,5.8,0,0,0,.242-2.329,5.8,5.8,0,0,0-.242-2.329,5.805,5.805,0,0,0-.242,2.329A5.805,5.805,0,0,0,389.445,103.454Z" transform="translate(-389.203 -98.795)"/></g></g><g transform="translate(245.18 55.848)"><path class="e" d="M256.665,9.722a5.8,5.8,0,0,0,.242-2.328,5.8,5.8,0,0,0-.242-2.328,5.8,5.8,0,0,0-.242,2.328A5.8,5.8,0,0,0,256.665,9.722Z" transform="translate(-256.423 -5.066)"/><g transform="translate(0 9.313)"><path class="e" d="M256.665,16.949a5.8,5.8,0,0,0,.242-2.329,5.8,5.8,0,0,0-.242-2.329,5.8,5.8,0,0,0-.242,2.329A5.8,5.8,0,0,0,256.665,16.949Z" transform="translate(-256.423 -12.29)"/></g><g transform="translate(0 18.63)"><path class="e" d="M256.665,24.174a5.8,5.8,0,0,0,.242-2.328,5.8,5.8,0,0,0-.242-2.328,5.8,5.8,0,0,0-.242,2.328A5.8,5.8,0,0,0,256.665,24.174Z" transform="translate(-256.423 -19.518)"/></g><g transform="translate(0 27.943)"><path class="e" d="M256.665,31.4a5.8,5.8,0,0,0,.242-2.328,5.8,5.8,0,0,0-.242-2.329,5.8,5.8,0,0,0-.242,2.329A5.8,5.8,0,0,0,256.665,31.4Z" transform="translate(-256.423 -26.742)"/></g><g transform="translate(0 37.26)"><path class="e" d="M256.665,38.63a5.813,5.813,0,0,0,.242-2.331,5.808,5.808,0,0,0-.242-2.331,5.808,5.808,0,0,0-.242,2.331A5.813,5.813,0,0,0,256.665,38.63Z" transform="translate(-256.423 -33.969)"/></g><g transform="translate(0 62.461)"><g transform="translate(0 0)"><path class="e" d="M256.665,58.174a5.8,5.8,0,0,0,.242-2.328,5.8,5.8,0,0,0-.242-2.328,5.8,5.8,0,0,0-.242,2.328A5.8,5.8,0,0,0,256.665,58.174Z" transform="translate(-256.423 -53.518)"/></g></g><g transform="translate(0 70.484)"><path class="e" d="M256.665,64.4a5.8,5.8,0,0,0,.242-2.328,5.8,5.8,0,0,0-.242-2.329,5.8,5.8,0,0,0-.242,2.329A5.8,5.8,0,0,0,256.665,64.4Z" transform="translate(-256.423 -59.742)"/></g><g transform="translate(0 45.702)"><g transform="translate(0 0)"><path class="e" d="M256.665,45.174a5.8,5.8,0,0,0,.242-2.328,5.8,5.8,0,0,0-.242-2.328,5.8,5.8,0,0,0-.242,2.328A5.8,5.8,0,0,0,256.665,45.174Z" transform="translate(-256.423 -40.518)"/></g></g><g transform="translate(0 53.726)"><g transform="translate(0 0)"><path class="e" d="M256.665,51.4a5.8,5.8,0,0,0,.242-2.328,5.8,5.8,0,0,0-.242-2.329,5.8,5.8,0,0,0-.242,2.329A5.8,5.8,0,0,0,256.665,51.4Z" transform="translate(-256.423 -46.742)"/></g></g><g transform="translate(0 78.512)"><g transform="translate(0 0)"><path class="e" d="M256.665,70.63a5.813,5.813,0,0,0,.242-2.331,5.808,5.808,0,0,0-.242-2.331,5.808,5.808,0,0,0-.242,2.331A5.813,5.813,0,0,0,256.665,70.63Z" transform="translate(-256.423 -65.969)"/></g></g><g transform="translate(0 86.547)"><path class="e" d="M256.665,76.861a5.8,5.8,0,0,0,.242-2.329,5.8,5.8,0,0,0-.242-2.329,5.8,5.8,0,0,0-.242,2.329A5.8,5.8,0,0,0,256.665,76.861Z" transform="translate(-256.423 -72.202)"/></g><g transform="translate(0 94.576)"><path class="e" d="M256.665,83.089a5.8,5.8,0,0,0,.242-2.329,5.8,5.8,0,0,0-.242-2.329,5.8,5.8,0,0,0-.242,2.329A5.8,5.8,0,0,0,256.665,83.089Z" transform="translate(-256.423 -78.43)"/></g><g transform="translate(0 103.893)"><path class="e" d="M256.665,90.321a5.813,5.813,0,0,0,.242-2.331,5.817,5.817,0,0,0-.242-2.332,5.817,5.817,0,0,0-.242,2.332A5.813,5.813,0,0,0,256.665,90.321Z" transform="translate(-256.423 -85.658)"/></g><g transform="translate(0 112.737)"><path class="e" d="M256.665,97.174a5.8,5.8,0,0,0,.242-2.328,5.8,5.8,0,0,0-.242-2.328,5.8,5.8,0,0,0-.242,2.328A5.8,5.8,0,0,0,256.665,97.174Z" transform="translate(-256.423 -92.518)"/></g><g transform="translate(0 120.76)"><path class="e" d="M256.665,103.4a5.8,5.8,0,0,0,.242-2.328,5.8,5.8,0,0,0-.242-2.329,5.8,5.8,0,0,0-.242,2.329A5.8,5.8,0,0,0,256.665,103.4Z" transform="translate(-256.423 -98.742)"/></g><g transform="translate(0 128.788)"><path class="e" d="M256.665,109.63a5.813,5.813,0,0,0,.242-2.331,5.808,5.808,0,0,0-.242-2.331,5.808,5.808,0,0,0-.242,2.331A5.813,5.813,0,0,0,256.665,109.63Z" transform="translate(-256.423 -104.969)"/></g><g transform="translate(0 136.823)"><path class="e" d="M256.665,115.861a5.8,5.8,0,0,0,.242-2.329,5.8,5.8,0,0,0-.242-2.329,5.8,5.8,0,0,0-.242,2.329A5.8,5.8,0,0,0,256.665,115.861Z" transform="translate(-256.423 -111.202)"/></g><g transform="translate(0 144.852)"><path class="e" d="M256.665,122.089a11.318,11.318,0,0,0,0-4.659,11.32,11.32,0,0,0,0,4.659Z" transform="translate(-256.423 -117.43)"/></g><g transform="translate(0 154.169)"><path class="e" d="M256.665,129.321a11.337,11.337,0,0,0,0-4.663,11.338,11.338,0,0,0,0,4.663Z" transform="translate(-256.423 -124.658)"/></g></g><g transform="translate(180.539)"><g transform="translate(0 3.023)"><path class="g" d="M207.891,27.55s.18.014.549.022l1.648.021,6.418.043,24.073.085,83.085.129h.224l.063-.217a21.014,21.014,0,0,0-3.176-18.017A20.961,20.961,0,0,0,303.582,1.2l.307.4a17.466,17.466,0,0,0,.643-5.579,18.389,18.389,0,0,0-9.513-15.5,18.8,18.8,0,0,0-17.6.1l.429.152A27.41,27.41,0,0,0,261.72-34.257a25.731,25.731,0,0,0-20.439.963,27.894,27.894,0,0,0-12.654,13.828A26.416,26.416,0,0,0,227.07-2.887l.232-.264a19.76,19.76,0,0,0-9.618,1.379,20.116,20.116,0,0,0-7.135,4.891A12.852,12.852,0,0,0,208.3,6.34a18.159,18.159,0,0,0-1.195,3.424,30.39,30.39,0,0,0-.818,6.252,35.454,35.454,0,0,0,.749,8.642,19.3,19.3,0,0,0,.6,2.179c.166.485.258.713.258.713" transform="translate(-206.267 35.911)"/></g><g transform="translate(7.395)"><g transform="translate(0)"><g transform="translate(4.768)"><path class="d" d="M215.705-3.685h3.587V-25.268a9.411,9.411,0,0,1,9.4-9.4,9.41,9.41,0,0,1,9.4,9.4V-3.685h3.588V-25.268a13,13,0,0,0-12.986-12.988,13,13,0,0,0-12.986,12.988Z" transform="translate(-215.705 38.256)"/></g><g transform="translate(0 24.97)"><rect class="d" width="35.508" height="22.786" rx="3.392" transform="translate(35.508 22.786) rotate(-180)"/></g><g transform="translate(14.786 30.426)"><g transform="translate(0 0)"><path class="i" d="M226.446-8.716a2.968,2.968,0,0,0,2.968-2.969,2.968,2.968,0,0,0-2.968-2.969,2.968,2.968,0,0,0-2.968,2.969,2.968,2.968,0,0,0,2.968,2.969" transform="translate(-223.478 14.654)"/></g><g transform="translate(2.158 4.144)"><g transform="translate(0)"><rect class="i" width="1.619" height="6.105" transform="translate(1.619 6.105) rotate(-180)"/></g></g></g></g></g></g><g transform="translate(45.505 68.739)"><g transform="translate(0 2.205)"><g transform="translate(0.115 0.174)"><path class="e" d="M128.965,54.074l29.406,27.442,9.063-2.282-.37-6.077-2.475-2.309L160.852,71.9l.575-4-4.251-3.967-6.133,1.72.943-6.563-4.945-4.614-6.133,1.718.943-6.562L137.9,45.941a19.416,19.416,0,1,0-8.934,8.133Zm-10.46-27.69a5.573,5.573,0,1,1-7.876.273A5.575,5.575,0,0,1,118.505,26.383Z" transform="translate(-101.583 -16.912)"/></g><g transform="translate(0.115 0.174)"><path class="j" d="M128.965,54.074l29.406,27.442,9.063-2.282-.37-6.077-2.475-2.309L160.852,71.9l.575-4-4.251-3.967-6.133,1.72.943-6.563-4.945-4.614-6.133,1.718.943-6.562L137.9,45.941a19.416,19.416,0,1,0-8.934,8.133Zm-10.46-27.69a5.573,5.573,0,1,1-7.876.273A5.575,5.575,0,0,1,118.505,26.383Z" transform="translate(-101.583 -16.912)"/></g><g transform="translate(7.511 7.99)"><path class="e" d="M108.972,24.9c.035.037.363-.339,1.107-.8a5.549,5.549,0,0,1,3.507-.77,5.363,5.363,0,1,1-5.858,6.278,5.555,5.555,0,0,1,.526-3.552c.4-.773.757-1.127.718-1.16-.013-.012-.1.071-.267.241a4.287,4.287,0,0,0-.617.828,5.554,5.554,0,0,0-.7,3.7,5.746,5.746,0,0,0,6.734,4.738,5.762,5.762,0,0,0,4.686-5.024A5.746,5.746,0,0,0,113.619,23a5.542,5.542,0,0,0-3.644.953,4.305,4.305,0,0,0-.782.673C109.035,24.8,108.959,24.892,108.972,24.9Z" transform="translate(-107.322 -22.975)"/></g><path class="e" d="M107.782,50.59s.09.1.28.269l.856.762a20.353,20.353,0,0,0,3.759,2.391,19.559,19.559,0,0,0,16.374.235l-.16-.026,29.357,27.493.086.081.116-.03,9.064-2.273.183-.045-.012-.189c-.113-1.9-.238-3.972-.366-6.077l-.005-.093-.068-.063-2.472-2.31-.1-.09-.126.036-3.739,1.045.3.262c.18-1.249.378-2.62.577-4l.018-.124-.092-.085-4.249-3.968-.1-.093-.13.037L151,65.455l.3.268c.3-2.081.621-4.313.945-6.563l.018-.125-.092-.086-1.312-1.223-3.634-3.392-.1-.093-.131.037L140.867,56l.3.267.942-6.563.018-.124-.091-.085-3.954-3.687.045.291a19.841,19.841,0,0,0,2.525-8.847,18.805,18.805,0,0,0-.322-4.5,19.032,19.032,0,0,0-1.293-4.227,19.572,19.572,0,0,0-37.471,9.386,19.228,19.228,0,0,0,2.179,7.481l.362.692.4.616c.264.393.483.779.736,1.1.525.632.928,1.2,1.324,1.595s.683.683.9.9.314.293.314.293-.09-.115-.284-.324l-.865-.923c-.384-.4-.775-.976-1.284-1.611-.246-.326-.459-.713-.715-1.106l-.388-.616-.351-.691a19.463,19.463,0,0,1-.14-17.468,19.245,19.245,0,0,1,34.873.857,18.667,18.667,0,0,1,1.257,4.13,18.405,18.405,0,0,1,.308,4.391,19.4,19.4,0,0,1-2.475,8.633l-.091.164.135.126,3.952,3.691-.073-.209q-.468,3.245-.946,6.562l-.053.366.356-.1,6.135-1.718-.231-.057,3.634,3.392,1.311,1.223-.075-.211-.943,6.562-.053.367.357-.1,6.133-1.721-.228-.057c1.464,1.366,2.915,2.72,4.252,3.965l-.073-.208c-.2,1.379-.394,2.751-.574,4l-.052.36.349-.1,3.738-1.049-.223-.055,2.476,2.308-.073-.155c.13,2.105.258,4.182.375,6.077l.171-.235-9.06,2.291.2.052L129.091,54.006l-.071-.066-.089.04a19.474,19.474,0,0,1-16.188-.111,21.385,21.385,0,0,1-3.776-2.311l-.879-.73C107.89,50.666,107.782,50.59,107.782,50.59Z" transform="translate(-101.494 -16.777)"/></g><g transform="translate(0.651)"><g transform="translate(0.115 0.174)"><path class="b" d="M129.47,52.364,158.876,79.8l9.063-2.282-.37-6.077-2.475-2.309-3.738,1.048.575-4-4.251-3.967-6.133,1.72.943-6.562-4.945-4.615-6.133,1.72.945-6.563-3.948-3.683-.005-.005a19.415,19.415,0,1,0-8.934,8.134ZM119.01,24.672a5.574,5.574,0,1,1-7.876.273A5.576,5.576,0,0,1,119.01,24.672Z" transform="translate(-102.088 -15.201)"/></g><g transform="translate(0.115 0.174)"><path class="j" d="M129.47,52.364,158.876,79.8l9.063-2.282-.37-6.077-2.475-2.309-3.738,1.048.575-4-4.251-3.967-6.133,1.72.943-6.562-4.945-4.615-6.133,1.72.945-6.563-3.948-3.683-.005-.005a19.415,19.415,0,1,0-8.934,8.134ZM119.01,24.672a5.574,5.574,0,1,1-7.876.273A5.576,5.576,0,0,1,119.01,24.672Z" transform="translate(-102.088 -15.201)"/></g><g transform="translate(7.511 7.99)"><path class="e" d="M109.477,23.193c.035.037.363-.339,1.107-.8a5.558,5.558,0,0,1,3.507-.77,5.363,5.363,0,1,1-5.858,6.279,5.566,5.566,0,0,1,.526-3.553c.4-.773.757-1.127.718-1.16-.013-.012-.1.072-.267.241a4.287,4.287,0,0,0-.617.828,5.554,5.554,0,0,0-.7,3.7,5.743,5.743,0,0,0,6.734,4.738,5.762,5.762,0,0,0,4.686-5.024,5.748,5.748,0,0,0-5.191-6.391,5.549,5.549,0,0,0-3.643.953,4.305,4.305,0,0,0-.782.673C109.54,23.086,109.464,23.182,109.477,23.193Z" transform="translate(-107.827 -21.264)"/></g><path class="e" d="M108.287,48.88s.09.1.28.268l.856.763a20.474,20.474,0,0,0,3.759,2.39,19.551,19.551,0,0,0,16.374.236l-.16-.027L158.753,80l.086.081.116-.03,9.064-2.273.183-.045-.012-.188c-.113-1.9-.238-3.973-.366-6.078l-.005-.093-.068-.063L165.28,69l-.1-.089-.126.035L161.318,70l.3.262c.18-1.249.378-2.62.577-4l.018-.124-.092-.085-4.249-3.968-.1-.092-.13.036-6.135,1.718.3.267c.3-2.081.621-4.313.946-6.562l.018-.126-.093-.086-1.311-1.223q-1.829-1.706-3.636-3.392l-.1-.093-.131.037-6.132,1.72.3.267q.476-3.314.942-6.562l.018-.125-.091-.085L138.591,44.1l.045.29a19.816,19.816,0,0,0,2.525-8.847,18.809,18.809,0,0,0-.322-4.5,19,19,0,0,0-1.293-4.226A19.572,19.572,0,0,0,102.075,36.2a19.219,19.219,0,0,0,2.181,7.482l.361.691.4.616c.264.393.485.78.736,1.1.525.633.928,1.2,1.324,1.595l.9.9c.2.2.313.294.313.294s-.09-.116-.284-.325l-.865-.923c-.384-.4-.775-.976-1.284-1.611-.246-.325-.459-.713-.715-1.106l-.388-.616c-.113-.224-.231-.454-.349-.691a19.456,19.456,0,0,1-.142-17.468A19.245,19.245,0,0,1,139.134,27a18.665,18.665,0,0,1,1.257,4.13,18.411,18.411,0,0,1,.308,4.391,19.383,19.383,0,0,1-2.475,8.633l-.092.164.135.128,3.952,3.689-.073-.209q-.468,3.245-.946,6.562l-.053.367.357-.1,6.133-1.718-.231-.057,3.634,3.392,1.311,1.223-.075-.211-.943,6.562-.053.369.357-.1,6.133-1.721-.228-.055L161.8,66.4l-.073-.208c-.2,1.381-.394,2.751-.574,4l-.052.358.349-.1,3.738-1.049-.223-.054,2.476,2.306-.073-.155c.13,2.105.259,4.182.375,6.077l.171-.233-9.06,2.289.2.052L129.6,52.3l-.071-.067-.089.04a19.465,19.465,0,0,1-16.186-.11,21.434,21.434,0,0,1-3.778-2.311l-.879-.731C108.4,48.955,108.287,48.88,108.287,48.88Z" transform="translate(-101.999 -15.066)"/></g><g transform="translate(3.141 2.459)"><path class="e" d="M109.513,46.812A26.5,26.5,0,0,1,106.9,43.52a16.362,16.362,0,0,1-2-4.472,16.925,16.925,0,0,1,8.6-19.765,15.887,15.887,0,0,1,4.593-1.551,18.925,18.925,0,0,1,2.494-.287,19.151,19.151,0,0,1,2.557.126,16.8,16.8,0,0,1,14.577,13.6,19.257,19.257,0,0,1,.3,2.543,19.056,19.056,0,0,1-.115,2.51,15.848,15.848,0,0,1-1.23,4.691,16.964,16.964,0,0,1-19.116,9.955,16.34,16.34,0,0,1-4.6-1.684,26.591,26.591,0,0,1-3.463-2.375,1.215,1.215,0,0,0,.2.2l.608.544a7.88,7.88,0,0,0,1.041.82,11.949,11.949,0,0,0,1.527.978,16.128,16.128,0,0,0,4.632,1.783,17.238,17.238,0,0,0,13.91-2.9,17.326,17.326,0,0,0,5.675-7.147,16.225,16.225,0,0,0,1.278-4.814,19.224,19.224,0,0,0,.124-2.58,19.264,19.264,0,0,0-.307-2.614A17.225,17.225,0,0,0,123.21,17.1a15.8,15.8,0,0,0-5.191.178,16.229,16.229,0,0,0-4.712,1.609,17.324,17.324,0,0,0-6.733,6.157,17.246,17.246,0,0,0-1.928,14.08,16.2,16.2,0,0,0,2.1,4.5,12.1,12.1,0,0,0,1.081,1.455,7.783,7.783,0,0,0,.892.984l.584.569A1.209,1.209,0,0,0,109.513,46.812Z" transform="translate(-103.931 -16.974)"/></g><g transform="translate(7.28 6.963)"><path class="e" d="M109.375,32.013c.039-.037-.406-.419-.947-1.289a6.513,6.513,0,0,1-.919-4.125,6.35,6.35,0,0,1,3.457-4.98,6.236,6.236,0,0,1,3.6-.63,6.279,6.279,0,0,1,5.441,5.077,6.258,6.258,0,0,1-.379,3.642A6.349,6.349,0,0,1,114.9,33.5a6.509,6.509,0,0,1-4.177-.632c-.9-.48-1.316-.9-1.351-.856-.012.012.088.117.287.307a5.1,5.1,0,0,0,.973.714,6.5,6.5,0,0,0,4.325.8,6.618,6.618,0,0,0,2.86-1.181,6.735,6.735,0,0,0-3.2-12.142,6.652,6.652,0,0,0-3.863.706,6.724,6.724,0,0,0-2.615,2.408,6.624,6.624,0,0,0-.98,2.935,6.5,6.5,0,0,0,1.1,4.261,5.091,5.091,0,0,0,.78.922C109.253,31.935,109.364,32.025,109.375,32.013Z" transform="translate(-107.143 -20.468)"/></g><g transform="translate(30.019 35.79)"><path class="e" d="M154.7,70.74c.091-.1-6.53-6.425-14.788-14.131s-15.029-13.876-15.12-13.778,6.529,6.424,14.789,14.133S154.6,70.838,154.7,70.74Z" transform="translate(-124.786 -42.829)"/></g></g><g transform="translate(74.583 122.025)"><g transform="translate(46.575 107.236)"><path class="e" d="M160.194,139.828a11.312,11.312,0,0,0,4.658,0,11.31,11.31,0,0,0-4.658,0Z" transform="translate(-160.194 -139.586)"/></g><g transform="translate(37.261 107.236)"><path class="e" d="M152.967,139.828a11.312,11.312,0,0,0,4.658,0,11.31,11.31,0,0,0-4.658,0Z" transform="translate(-152.967 -139.586)"/></g><g transform="translate(29.234 107.236)"><path class="e" d="M146.739,139.828a11.312,11.312,0,0,0,4.658,0,11.31,11.31,0,0,0-4.658,0Z" transform="translate(-146.739 -139.586)"/></g><g transform="translate(21.208 107.236)"><path class="e" d="M140.511,139.828a11.312,11.312,0,0,0,4.658,0,11.31,11.31,0,0,0-4.658,0Z" transform="translate(-140.511 -139.586)"/></g><g transform="translate(11.892 107.236)"><path class="e" d="M133.283,139.828a11.312,11.312,0,0,0,4.658,0,11.31,11.31,0,0,0-4.658,0Z" transform="translate(-133.283 -139.586)"/></g><g transform="translate(0 107.479)"><path class="e" d="M124.056,139.774" transform="translate(-124.056 -139.774)"/></g><g transform="translate(4.752 106.067)"><path class="e" d="M127.975,138.679c-.1,0-.186.581-.223,1.412l-.009.213.232.01c.281.013.592.019.918.019a5.8,5.8,0,0,0,2.329-.242,5.8,5.8,0,0,0-2.329-.242c-.326,0-.637.006-.918.019l.223.223C128.161,139.26,128.076,138.679,127.975,138.679Z" transform="translate(-127.743 -138.679)"/></g><g transform="translate(4.742 83.858)"><path class="e" d="M127.977,121.451a11.319,11.319,0,0,0,0,4.659,11.32,11.32,0,0,0,0-4.659Z" transform="translate(-127.735 -121.451)"/></g><g transform="translate(4.742 74.54)"><path class="e" d="M127.977,114.223a11.319,11.319,0,0,0,0,4.659,11.32,11.32,0,0,0,0-4.659Z" transform="translate(-127.735 -114.223)"/></g><g transform="translate(4.742 91.299)"><path class="e" d="M127.977,127.223a11.319,11.319,0,0,0,0,4.659,11.32,11.32,0,0,0,0-4.659Z" transform="translate(-127.735 -127.223)"/></g><g transform="translate(4.742 99.033)"><path class="e" d="M127.977,133.223a11.319,11.319,0,0,0,0,4.659,11.32,11.32,0,0,0,0-4.659Z" transform="translate(-127.735 -133.223)"/></g><g transform="translate(4.742 65.222)"><path class="e" d="M127.977,106.995a5.8,5.8,0,0,0-.242,2.329,5.8,5.8,0,0,0,.242,2.329,5.805,5.805,0,0,0,.242-2.329A5.805,5.805,0,0,0,127.977,106.995Z" transform="translate(-127.735 -106.995)"/></g><g transform="translate(4.742 55.904)"><path class="e" d="M127.977,99.767a5.81,5.81,0,0,0-.242,2.329,5.8,5.8,0,0,0,.242,2.329,5.805,5.805,0,0,0,.242-2.329A5.81,5.81,0,0,0,127.977,99.767Z" transform="translate(-127.735 -99.767)"/></g><g transform="translate(4.742 46.588)"><path class="e" d="M127.977,92.54a5.8,5.8,0,0,0-.242,2.329,5.8,5.8,0,0,0,.242,2.329,5.805,5.805,0,0,0,.242-2.329A5.805,5.805,0,0,0,127.977,92.54Z" transform="translate(-127.735 -92.54)"/></g><g transform="translate(4.742 37.27)"><path class="e" d="M127.977,85.312a5.8,5.8,0,0,0-.242,2.329,5.8,5.8,0,0,0,.242,2.329,5.805,5.805,0,0,0,.242-2.329A5.805,5.805,0,0,0,127.977,85.312Z" transform="translate(-127.735 -85.312)"/></g><g transform="translate(4.742 27.952)"><path class="e" d="M127.977,78.084a5.8,5.8,0,0,0-.242,2.329,5.8,5.8,0,0,0,.242,2.329,5.805,5.805,0,0,0,.242-2.329A5.805,5.805,0,0,0,127.977,78.084Z" transform="translate(-127.735 -78.084)"/></g><g transform="translate(4.742 18.634)"><path class="e" d="M127.977,70.856a5.8,5.8,0,0,0-.242,2.329,5.8,5.8,0,0,0,.242,2.329,5.805,5.805,0,0,0,.242-2.329A5.805,5.805,0,0,0,127.977,70.856Z" transform="translate(-127.735 -70.856)"/></g><g transform="translate(4.742 9.318)"><path class="e" d="M127.977,63.629a5.8,5.8,0,0,0-.242,2.329,5.8,5.8,0,0,0,.242,2.329,5.805,5.805,0,0,0,.242-2.329A5.805,5.805,0,0,0,127.977,63.629Z" transform="translate(-127.735 -63.629)"/></g><g transform="translate(4.742 0)"><path class="e" d="M127.977,56.4a5.8,5.8,0,0,0-.242,2.329,5.8,5.8,0,0,0,.242,2.329,5.805,5.805,0,0,0,.242-2.329A5.805,5.805,0,0,0,127.977,56.4Z" transform="translate(-127.735 -56.401)"/></g></g><g transform="translate(56.624 293.551)"><g transform="translate(79.899 28.58)"><path class="e" d="M172.115,211.871a11.311,11.311,0,0,0,4.658,0,11.252,11.252,0,0,0-4.658,0Z" transform="translate(-172.115 -211.627)"/></g><g transform="translate(70.583 28.58)"><path class="e" d="M164.887,211.871a11.311,11.311,0,0,0,4.658,0,11.252,11.252,0,0,0-4.658,0Z" transform="translate(-164.887 -211.627)"/></g><g transform="translate(61.267 28.58)"><path class="e" d="M157.659,211.871a11.311,11.311,0,0,0,4.658,0,11.252,11.252,0,0,0-4.658,0Z" transform="translate(-157.659 -211.627)"/></g><g transform="translate(51.953 28.58)"><path class="e" d="M150.432,211.871a11.311,11.311,0,0,0,4.658,0,11.252,11.252,0,0,0-4.658,0Z" transform="translate(-150.432 -211.627)"/></g><g transform="translate(44.769 28.58)"><path class="e" d="M144.858,211.871a11.311,11.311,0,0,0,4.658,0,11.252,11.252,0,0,0-4.658,0Z" transform="translate(-144.858 -211.627)"/></g><g transform="translate(36.895 28.58)"><path class="e" d="M138.748,211.871a11.311,11.311,0,0,0,4.658,0,11.252,11.252,0,0,0-4.658,0Z" transform="translate(-138.748 -211.627)"/></g><g transform="translate(27.58 28.58)"><path class="e" d="M131.521,211.871a11.311,11.311,0,0,0,4.658,0,11.252,11.252,0,0,0-4.658,0Z" transform="translate(-131.521 -211.627)"/></g><g transform="translate(18.265 28.58)"><path class="e" d="M124.293,211.871a11.311,11.311,0,0,0,4.658,0,11.252,11.252,0,0,0-4.658,0Z" transform="translate(-124.293 -211.627)"/></g><g transform="translate(8.949 28.58)"><path class="e" d="M117.065,211.871a11.311,11.311,0,0,0,4.658,0,11.252,11.252,0,0,0-4.658,0Z" transform="translate(-117.065 -211.627)"/></g><g transform="translate(0.305 27.951)"><path class="e" d="M110.55,211.139c-.076,0-.14.339-.179.874l-.013.17.2.017c.393.034.9.054,1.456.054a5.826,5.826,0,0,0,2.329-.242,5.788,5.788,0,0,0-2.329-.244c-.554,0-1.063.021-1.456.054l.188.187C110.7,211.475,110.626,211.138,110.55,211.139Z" transform="translate(-110.358 -211.139)"/></g><g transform="translate(0.184 18.634)"><path class="e" d="M110.486,203.912a11.255,11.255,0,0,0,.046,4.658,11.313,11.313,0,0,0-.046-4.658Z" transform="translate(-110.264 -203.912)"/></g><g transform="translate(0.093 9.317)"><path class="e" d="M110.413,196.684a11.32,11.32,0,0,0,.046,4.659,11.32,11.32,0,0,0-.046-4.659Z" transform="translate(-110.193 -196.684)"/></g><g transform="translate(0 0)"><path class="e" d="M110.343,189.457a11.255,11.255,0,0,0,.046,4.658,11.314,11.314,0,0,0-.046-4.658Z" transform="translate(-110.121 -189.457)"/></g></g><g transform="translate(20.877 262.109)"><g transform="translate(4.008 0)"><path class="g" d="M148.281,167.308,146.57,198.8a2.126,2.126,0,0,1-2.106,2.011l-56.649.415a2.128,2.128,0,0,1-2.141-2.11L85.5,174.6a2.125,2.125,0,0,1,2.124-2.141l34.839-.031a2.128,2.128,0,0,0,1.5-.623l6.011-6.01a2.126,2.126,0,0,1,1.487-.623l14.686-.107A2.125,2.125,0,0,1,148.281,167.308Z" transform="translate(-85.495 -165.067)"/></g><g transform="translate(3.965 3.235)"><rect class="a" width="61.896" height="36.995" transform="matrix(-1, 0.007, -0.007, -1, 62.165, 36.994)"/></g><g transform="translate(0 4.995)"><path class="g" d="M153.193,170.464l-4.444,38.613a1.366,1.366,0,0,1-1.347,1.211l-60.321.442a1.366,1.366,0,0,1-1.371-1.249l-3.32-38.557a1.367,1.367,0,0,1,1.352-1.484l68.083-.5A1.367,1.367,0,0,1,153.193,170.464Z" transform="translate(-82.385 -168.942)"/></g></g><g transform="translate(101.671 208.599)"><g transform="translate(14.101)"><rect class="e" width="338.921" height="224.179" rx="14.567" transform="translate(338.921 224.179) rotate(-180)"/></g><g transform="translate(0 207.599)"><g transform="translate(0 0)"><path class="e" d="M15.216,0H351.979A15.216,15.216,0,0,1,367.2,15.216v4.4a0,0,0,0,1,0,0H0a0,0,0,0,1,0,0v-4.4A15.216,15.216,0,0,1,15.216,0Z" transform="translate(367.195 19.615) rotate(-180)"/></g></g><g transform="translate(24.146 8.907)"><rect class="i" width="319.778" height="189.316" transform="translate(319.778 189.316) rotate(-180)"/></g><g transform="translate(144.068 207.599)"><path class="i" d="M329.76,284.6l-4.556,7.25H261.087l-4.231-7.25Z" transform="translate(-256.856 -284.596)"/></g><g transform="translate(30.075 15.316)"><path class="c" d="M3.272,0H303.99a3.273,3.273,0,0,1,3.273,3.273V179.028a3.273,3.273,0,0,1-3.273,3.273H3.272A3.272,3.272,0,0,1,0,179.029V3.272A3.272,3.272,0,0,1,3.272,0Z" transform="translate(307.263 182.301) rotate(-180)"/><g transform="translate(0 13.357)"><rect class="d" width="307.263" height="168.944" transform="translate(307.263 168.944) rotate(-180)"/></g><g transform="translate(282.062 4.586)"><path class="e" d="M387.262,141.451A2.454,2.454,0,1,0,389.716,139,2.455,2.455,0,0,0,387.262,141.451Z" transform="translate(-387.262 -138.996)"/></g><g transform="translate(296.935 4.586)"><path class="e" d="M398.8,141.451A2.454,2.454,0,1,0,401.256,139,2.454,2.454,0,0,0,398.8,141.451Z" transform="translate(-398.802 -138.996)"/></g><g transform="translate(289.797 4.586)"><path class="e" d="M393.263,141.451A2.454,2.454,0,1,0,395.717,139,2.454,2.454,0,0,0,393.263,141.451Z" transform="translate(-393.263 -138.996)"/></g></g><g transform="translate(17.013 207.379)"><path class="i" d="M158.274,284.645c0,.121,75.224.219,168,.219,92.805,0,168.013-.1,168.013-.219s-75.208-.22-168.013-.22C233.5,284.425,158.274,284.524,158.274,284.645Z" transform="translate(-158.274 -284.425)"/></g><g transform="translate(51.079 48.642)"><g transform="translate(194.848 65.136)"><g transform="translate(0 0)"><rect class="b" width="70.116" height="4.692" transform="translate(70.116 4.692) rotate(-180)"/></g></g><g transform="translate(104.284 0)"><g transform="translate(0)"><rect class="b" width="70.116" height="4.692" transform="translate(70.116 4.692) rotate(-180)"/></g></g><g transform="translate(0 17.252)"><path class="b" d="M184.706,174.893c0,.121,39.043.219,87.2.219,48.168,0,87.2-.1,87.2-.219s-39.036-.22-87.2-.22C223.749,174.673,184.706,174.772,184.706,174.893Z" transform="translate(-184.706 -174.673)"/></g><g transform="translate(0 27.497)"><path class="b" d="M184.706,182.84c0,.121,39.043.219,87.2.219,48.168,0,87.2-.1,87.2-.219s-39.036-.22-87.2-.22C223.749,182.62,184.706,182.719,184.706,182.84Z" transform="translate(-184.706 -182.62)"/></g><g transform="translate(0 37.742)"><path class="b" d="M184.706,190.786c0,.122,39.043.22,87.2.22,48.168,0,87.2-.1,87.2-.22s-39.036-.219-87.2-.219C223.749,190.567,184.706,190.665,184.706,190.786Z" transform="translate(-184.706 -190.567)"/></g><g transform="translate(0 47.986)"><path class="b" d="M184.706,198.733c0,.121,39.043.22,87.2.22,48.168,0,87.2-.1,87.2-.22s-39.036-.219-87.2-.219C223.749,198.514,184.706,198.612,184.706,198.733Z" transform="translate(-184.706 -198.514)"/></g><g transform="translate(0 58.231)"><path class="b" d="M184.706,206.68c0,.121,39.043.22,87.2.22,48.168,0,87.2-.1,87.2-.22s-39.036-.219-87.2-.219C223.749,206.461,184.706,206.559,184.706,206.68Z" transform="translate(-184.706 -206.461)"/></g><g transform="translate(106.322 68.476)"><path class="b" d="M267.2,214.627c0,.121,15.242.219,34.038.219s34.04-.1,34.04-.219-15.238-.219-34.04-.219S267.2,214.506,267.2,214.627Z" transform="translate(-267.202 -214.408)"/></g><g transform="translate(1.275 88.358)"><path class="b" d="M185.7,230.05c0,.121,25.663.219,57.312.219s57.318-.1,57.318-.219-25.658-.219-57.318-.219S185.7,229.929,185.7,230.05Z" transform="translate(-185.695 -229.831)"/></g><g transform="translate(1.275 99.232)"><path class="b" d="M185.7,238.486c0,.121,25.663.219,57.312.219s57.318-.1,57.318-.219-25.658-.22-57.318-.22S185.7,238.365,185.7,238.486Z" transform="translate(-185.695 -238.266)"/></g><g transform="translate(1.275 110.107)"><path class="b" d="M185.7,246.922c0,.121,25.663.219,57.312.219s57.318-.1,57.318-.219-25.658-.22-57.318-.22S185.7,246.8,185.7,246.922Z" transform="translate(-185.695 -246.702)"/></g><g transform="translate(1.275 120.982)"><path class="b" d="M185.7,255.357c0,.121,25.663.22,57.312.22s57.318-.1,57.318-.22-25.658-.219-57.318-.219S185.7,255.236,185.7,255.357Z" transform="translate(-185.695 -255.138)"/></g><g transform="translate(194.671 87.318)"><path class="b" d="M335.752,229.243c0,.121,15.3.219,34.165.219s34.167-.1,34.167-.219-15.294-.219-34.167-.219S335.752,229.122,335.752,229.243Z" transform="translate(-335.752 -229.024)"/></g><g transform="translate(194.671 95.858)"><path class="b" d="M335.752,235.868c0,.121,15.3.219,34.165.219s34.167-.1,34.167-.219-15.294-.219-34.167-.219S335.752,235.747,335.752,235.868Z" transform="translate(-335.752 -235.649)"/></g><g transform="translate(194.671 104.397)"><path class="b" d="M335.752,242.493c0,.121,15.3.219,34.165.219s34.167-.1,34.167-.219-15.294-.22-34.167-.22S335.752,242.372,335.752,242.493Z" transform="translate(-335.752 -242.273)"/></g><g transform="translate(194.671 112.938)"><path class="b" d="M335.752,249.118c0,.121,15.3.219,34.165.219s34.167-.1,34.167-.219-15.294-.22-34.167-.22S335.752,249,335.752,249.118Z" transform="translate(-335.752 -248.898)"/></g><g transform="translate(194.671 121.478)"><path class="b" d="M335.752,255.742c0,.122,15.3.22,34.165.22s34.167-.1,34.167-.22-15.294-.219-34.167-.219S335.752,255.621,335.752,255.742Z" transform="translate(-335.752 -255.523)"/></g><g transform="translate(124.695 83.389)"><g transform="translate(0 0)"><rect class="a" width="49.748" height="48.141" transform="translate(49.748 48.141) rotate(-180)"/></g><g transform="translate(3.857 19.248)"><path class="c" d="M326.484,265.68l-13.762-24.773-11.256,15.834-6.84-8.409L284.45,265.68Z" transform="translate(-284.45 -240.907)"/></g><g transform="translate(16.077 10.849)"><path class="c" d="M293.932,237.973a3.58,3.58,0,1,0,3.58-3.581A3.581,3.581,0,0,0,293.932,237.973Z" transform="translate(-293.932 -234.392)"/></g><g transform="translate(3.653 3.746)"><path class="c" d="M284.5,269.291a1.414,1.414,0,0,0,.012-.2c0-.144.006-.327.012-.561q.008-.77.023-2.167c.013-1.909.031-4.671.053-8.176.026-7.032.062-17.045.1-29.067l-.2.2,42.03.035c.057.049-.445-.446-.233-.231v2.729q0,1.365,0,2.719,0,2.705,0,5.359c0,3.539,0,7,.005,10.374.009,6.742.017,13.117.023,18.981l.206-.206-30.392.1-8.571.054-2.275.024-.589.012a1.544,1.544,0,0,0-.207.012,1,1,0,0,0,.184.012c.144,0,.33.008.567.012l2.234.025,8.526.054,30.523.1h.206v-.208c.008-5.864.015-12.239.023-18.981,0-3.371,0-6.835.006-10.374v-5.359q0-1.354,0-2.719V229.13c.211.208-.287-.3-.241-.244l-42.03.034h-.2v.2c.044,12.075.08,22.133.1,29.2.023,3.487.041,6.233.053,8.13q.016,1.373.023,2.127c.005.224.009.4.012.54A.9.9,0,0,0,284.5,269.291Z" transform="translate(-284.292 -228.882)"/></g></g></g><g transform="translate(247.249 40.633)"><rect class="a" width="67.473" height="65.294" transform="translate(67.473 65.294) rotate(-180)"/><g transform="translate(5.231 26.106)"><path class="b" d="M397.984,208.928l-18.665-33.6L364.053,196.8l-9.277-11.4-13.8,23.529Z" transform="translate(-340.974 -175.328)"/></g><g transform="translate(21.807 14.714)"><path class="b" d="M353.835,171.348a4.856,4.856,0,1,0,4.855-4.857A4.855,4.855,0,0,0,353.835,171.348Z" transform="translate(-353.835 -166.491)"/></g><g transform="translate(4.954 5.08)"><path class="b" d="M341.036,213.825a1.936,1.936,0,0,0,.016-.267c0-.2.009-.445.015-.762q.012-1.042.032-2.938c.017-2.59.041-6.335.071-11.089.035-9.537.084-23.118.142-39.424l-.276.275,57,.046c.077.067-.6-.6-.316-.312v3.7q0,1.853,0,3.687,0,3.67,0,7.269c0,4.8.005,9.5.009,14.07.01,9.145.021,17.791.03,25.744l.281-.28-41.22.142-11.626.073-3.084.034-.8.015a2.144,2.144,0,0,0-.281.015,1.39,1.39,0,0,0,.25.015l.768.017,3.03.032,11.563.074,41.4.142h.28v-.281c.009-7.953.019-16.6.03-25.744,0-4.573.006-9.271.009-14.07q0-3.6,0-7.269,0-1.835,0-3.687v-3.7c.286.281-.391-.4-.327-.331l-57,.045h-.277v.276c.059,16.378.107,30.02.142,39.6.03,4.729.054,8.453.071,11.026q.021,1.862.032,2.886c.006.3.012.544.015.731A1.256,1.256,0,0,0,341.036,213.825Z" transform="translate(-340.759 -159.018)"/></g></g><g transform="translate(111.365 32.745)"><g transform="translate(116.055 32.699)"><path class="k" d="M332.316,174.324l-3.333,6.755-7.453,1.083,5.393,5.258-1.273,7.425,6.666-3.506,6.666,3.506-1.273-7.425,5.393-5.258-7.453-1.083Z" transform="translate(-321.53 -174.324)"/></g><g transform="translate(94.343 10.896)"><path class="g" d="M313.705,157.411l-2.788,5.65-6.234.906,4.511,4.4-1.065,6.21,5.576-2.932,5.576,2.932-1.065-6.21,4.511-4.4-6.234-.906Z" transform="translate(-304.683 -157.411)"/></g><g transform="translate(61.204)"><path class="k" d="M289.757,148.959l-3.333,6.755-7.453,1.083,5.393,5.258-1.273,7.425,6.666-3.505,6.666,3.505-1.273-7.425,5.393-5.258-7.453-1.083Z" transform="translate(-278.971 -148.959)"/></g><g transform="translate(30.497 11.115)"><path class="g" d="M264.166,157.581l-2.788,5.65-6.234.906,4.511,4.4-1.065,6.21,5.576-2.932,5.576,2.932-1.065-6.21,4.511-4.4-6.234-.906Z" transform="translate(-255.145 -157.581)"/></g><g transform="translate(6.353 31.821)"><path class="k" d="M247.2,173.643l-3.333,6.755-7.453,1.083,5.393,5.258-1.273,7.425,6.666-3.505,6.666,3.505-1.273-7.425,5.393-5.258-7.453-1.083Z" transform="translate(-236.412 -173.643)"/></g><g transform="translate(0 65.979)"><path class="g" d="M240.5,200.14l-2.788,5.65-6.234.906,4.511,4.4-1.065,6.21,5.576-2.932,5.576,2.932-1.065-6.21,4.511-4.4-6.234-.906Z" transform="translate(-231.482 -200.14)"/></g><g transform="translate(6.134 96.561)"><path class="k" d="M247.028,223.863l-3.333,6.755-7.453,1.083,5.393,5.258-1.273,7.425,6.666-3.505,6.666,3.505-1.273-7.425,5.393-5.258-7.453-1.083Z" transform="translate(-236.241 -223.863)"/></g><g transform="translate(31.666 120.624)"><path class="g" d="M265.073,242.529l-2.788,5.65-6.234.906,4.511,4.4-1.065,6.21,5.576-2.932,5.576,2.932-1.065-6.21,4.511-4.4-6.234-.906Z" transform="translate(-256.052 -242.529)"/></g><g transform="translate(61.836 128.173)"><path class="k" d="M290.247,248.385l-3.333,6.755-7.453,1.083,5.393,5.258-1.273,7.425,6.666-3.506,6.666,3.506-1.273-7.425,5.393-5.258-7.453-1.083Z" transform="translate(-279.461 -248.385)"/></g><g transform="translate(94.097 120.634)"><path class="g" d="M313.514,242.537l-2.788,5.65-6.234.906,4.511,4.4-1.065,6.21,5.576-2.932,5.576,2.932-1.065-6.21,4.511-4.4-6.234-.906Z" transform="translate(-304.492 -242.537)"/></g><g transform="translate(116.467 95.977)"><path class="k" d="M332.635,223.41l-3.333,6.755-7.453,1.083,5.393,5.258-1.273,7.425,6.666-3.506,6.666,3.506-1.273-7.425,5.393-5.258-7.453-1.083Z" transform="translate(-321.849 -223.41)"/></g><g transform="translate(126.349 66.016)"><path class="g" d="M338.539,200.169l-2.788,5.65-6.234.906,4.511,4.4-1.065,6.21,5.576-2.932,5.576,2.932-1.065-6.21,4.511-4.4-6.234-.906Z" transform="translate(-329.517 -200.169)"/></g><g transform="translate(41.454 30.332)"><g transform="translate(7.534)"><path class="e" d="M269.492,229.665h6.52v-35.5a15.15,15.15,0,1,1,30.3,0v35.5h6.521v-35.5a21.671,21.671,0,1,0-43.342,0Z" transform="translate(-269.492 -172.488)"/></g><g transform="translate(0 41.385)"><rect class="k" width="58.409" height="37.482" rx="5.811" transform="translate(58.409 37.482) rotate(-180)"/></g><g transform="translate(24.322 50.36)"><path class="e" d="M282.518,216.436a4.882,4.882,0,1,0,4.882-4.883A4.883,4.883,0,0,0,282.518,216.436Z" transform="translate(-282.518 -211.553)"/><g transform="translate(3.551 6.817)"><rect class="e" width="2.664" height="10.043" transform="translate(2.664 10.043) rotate(-180)"/></g></g><g transform="translate(55.051 47.391)"><path class="d" d="M306.6,237.171c.134,0,.244-6.251.244-13.96s-.11-13.961-.244-13.961-.242,6.25-.242,13.961S306.469,237.171,306.6,237.171Z" transform="translate(-306.361 -209.25)"/></g><g transform="translate(30.07 48.99)"><path class="d" d="M289.936,223c.015.023.228-.077.572-.325a5.984,5.984,0,0,0,1.258-1.283,6.845,6.845,0,0,0-2.431-10.269,5.929,5.929,0,0,0-1.7-.583,1.5,1.5,0,0,0-.657-.033,15.213,15.213,0,0,1,2.192.917,6.769,6.769,0,0,1,2.313,9.773A15.423,15.423,0,0,1,289.936,223Z" transform="translate(-286.978 -210.49)"/></g></g></g></g><g transform="translate(439.858 287.708)"><g transform="translate(42.037 6.724)"><path class="e" d="M447.346,192.13a10.247,10.247,0,0,1-.15,6.529,30.474,30.474,0,0,1-2.94,5.949,106.552,106.552,0,0,1-3.962-11.411,2.681,2.681,0,0,1,.219-2.529,2.355,2.355,0,0,1,1.88-.518,8.665,8.665,0,0,1,5.328,2.275" transform="translate(-440.091 -190.141)"/></g><g transform="translate(110.759 112.947)"><path class="e" d="M514.09,272.815l15.24,34.848H508.35l-14.938-35.124Z" transform="translate(-493.413 -272.539)"/></g><g transform="translate(9.279 113.636)"><g transform="translate(20.36 0.006)"><path class="l" d="M441.649,307.09c-20.562-6.809-6.462-34.011-6.462-34.011l89.86,8.454a13,13,0,0,1,13.088,13h0a13,13,0,0,1-13,13l-83.486-.451" transform="translate(-430.471 -273.079)"/></g><path class="l" d="M425.772,307.543c-20.035-6.764-6.827-34.469-6.827-34.469l87.6,8.261c8.556.112,12.735,4.24,12.735,12.974h0c-.016,7.18-2.669,13.234-12.705,13.029l-80.8.2" transform="translate(-414.674 -273.074)"/><g transform="translate(30.837 4.586)"><path class="e" d="M438.6,276.642a1,1,0,0,1,.25-.01l.729.018,2.8.116c2.468.121,5.98.3,10.308.51l33.994,1.864c1.659.079,3.3.223,4.914.246s3.219.093,4.787.187,3.106.213,4.611.375a16.434,16.434,0,0,1,4.381.9,10.533,10.533,0,0,1,3.643,2.335,9.712,9.712,0,0,1,2.209,3.546,17.7,17.7,0,0,1,.9,3.834,26.46,26.46,0,0,1,.241,3.624,15.415,15.415,0,0,1-1.156,6.1A10.016,10.016,0,0,1,508.49,304a7.336,7.336,0,0,1-2.481,1.4c-.619.2-.63.131-.027-.092a7.7,7.7,0,0,0,2.4-1.453,10.019,10.019,0,0,0,2.606-3.678,15.287,15.287,0,0,0,1.067-5.994,26.667,26.667,0,0,0-.266-3.571,17.519,17.519,0,0,0-.9-3.741,9.338,9.338,0,0,0-2.134-3.388,10.179,10.179,0,0,0-3.515-2.228,16.121,16.121,0,0,0-4.283-.859c-1.5-.157-3.03-.269-4.592-.361s-3.154-.156-4.769-.179-3.259-.165-4.921-.244c-13.262-.783-25.267-1.489-34-2-4.324-.278-7.835-.5-10.3-.661l-2.8-.205-.727-.064A.906.906,0,0,1,438.6,276.642Z" transform="translate(-438.6 -276.632)"/></g><g transform="translate(11.054 2.009)"><path class="e" d="M423.251,285.8a2.137,2.137,0,0,0,.711.353,7.346,7.346,0,0,0,2.129.433,8.311,8.311,0,0,0,8.9-9.133,7.361,7.361,0,0,0-.487-2.117,2.153,2.153,0,0,0-.371-.7,15.093,15.093,0,0,1,.519,2.843,8.237,8.237,0,0,1-8.553,8.771A15.047,15.047,0,0,1,423.251,285.8Z" transform="translate(-423.251 -274.633)"/></g></g><g transform="translate(52.617 71.722)"><path class="m" d="M460.584,240.56l8.312,28.449,30.768,3.3v5.462l-45.208.624L448.3,241.351Z" transform="translate(-448.3 -240.56)"/></g><g transform="translate(0.311 41.749)"><path class="g" d="M432.185,217.559c-5.459.012-20.241,2.8-21.54,12.766-1.173,9-2.929,19.212-2.929,19.212l19.46.523-6.63,1.755-2.839,42.011,50.357-1.745-2.672-21.6-2.192-21.59h0l11-.9S470.437,229.2,463.87,223.4a26.749,26.749,0,0,0-14.493-5.841,152.123,152.123,0,0,0-17.193,0" transform="translate(-407.715 -217.31)"/></g><g transform="translate(53.976 59.374)"><path class="e" d="M449.366,230.982c-.116.013.652,7.606,1.717,16.957s2.023,16.925,2.139,16.911-.651-7.6-1.717-16.958S449.483,230.968,449.366,230.982Z" transform="translate(-449.354 -230.982)"/></g><g transform="translate(23.167 42.062)"><path class="e" d="M425.557,217.553a1.184,1.184,0,0,0-.054.353c-.022.232-.044.575-.052,1.018a11.308,11.308,0,0,0,.545,3.72,10.874,10.874,0,0,0,2.855,4.845,8.211,8.211,0,0,0,2.911,1.809,11.645,11.645,0,0,0,3.664.581,19.976,19.976,0,0,0,3.693-.25,7.612,7.612,0,0,0,3.195-1.3,8.378,8.378,0,0,0,3.033-4.723,12.223,12.223,0,0,0,.418-3.735c-.016-.443-.05-.786-.076-1.018a1.162,1.162,0,0,0-.065-.351c-.032,0-.006.49-.017,1.37a13.3,13.3,0,0,1-.536,3.662,8.243,8.243,0,0,1-2.981,4.509,7.3,7.3,0,0,1-3.044,1.209,20.122,20.122,0,0,1-3.611.236,11.407,11.407,0,0,1-3.535-.55,7.912,7.912,0,0,1-2.788-1.707,10.864,10.864,0,0,1-2.843-4.671,12.2,12.2,0,0,1-.66-3.641C425.578,218.044,425.589,217.554,425.557,217.553Z" transform="translate(-425.449 -217.553)"/></g><g class="n" transform="translate(20.226 59.375)"><path d="M423.516,230.983c1.865,8.913,4.294,18.074,6.159,26.988a13.41,13.41,0,0,0,1.978,5.405,12.711,12.711,0,0,0,2.659,2.448,46.963,46.963,0,0,0,11.865,6.914,106.662,106.662,0,0,1-18.47-3.216,5.038,5.038,0,0,1-2.775-1.434,5.1,5.1,0,0,1-.829-2.647c-1.342-11.429-.954-22.958-.588-34.458" transform="translate(-423.167 -230.983)"/></g><g transform="translate(0 57.549)"><path class="e" d="M407.474,246.143a9.489,9.489,0,0,0,1.462.112l3.991.147c3.372.106,8.028.223,13.172.325l1.654.032.207,0,.008-.2c.186-4.777.1-9.024.01-12.08-.048-1.526-.106-2.755-.157-3.6a8.047,8.047,0,0,0-.121-1.31,8.377,8.377,0,0,0-.036,1.315c.008.915.017,2.128.027,3.6.014,3.051.049,7.3-.146,12.052l.215-.2-1.652-.034c-5.145-.1-9.8-.171-13.174-.2l-3.994-.012A9.867,9.867,0,0,0,407.474,246.143Z" transform="translate(-407.474 -229.566)"/></g><g transform="translate(71.144 73.679)"><path class="b" d="M534.052,244.571l-17.189,33.8H462.675l2.194-4.415,15.7-.467,12.8-28.5a4.932,4.932,0,0,1,4.5-2.912h34.663A1.715,1.715,0,0,1,534.052,244.571Z" transform="translate(-462.675 -242.079)"/><g transform="translate(44.239 15.553)"><ellipse class="e" cx="2.073" cy="2.074" rx="2.073" ry="2.074"/></g></g><g transform="translate(20.821 3.172)"><g transform="translate(2.142)"><path class="m" d="M425.337,200.742l1.94,27.5a8.574,8.574,0,0,0,8.551,7.971h0a8.574,8.574,0,0,0,8.555-9.135c-.173-2.618-.329-4.762-.329-4.762s6.645-1.035,6.739-7.692c.044-3.135-.374-9.342-.842-15.177A13.1,13.1,0,0,0,436.9,187.385h-.006A12.318,12.318,0,0,0,425.337,200.742Z" transform="translate(-425.291 -187.385)"/><g transform="translate(10.128 32.786)"><path class="o" d="M441.825,215.285a15.477,15.477,0,0,1-8.676-2.467s2.052,4.792,8.692,4.192Z" transform="translate(-433.149 -212.818)"/></g></g><g transform="translate(10.858 10.494)"><g transform="translate(0.646 3.586)"><g transform="translate(10.054)"><g transform="translate(1.269 1.449)"><path class="e" d="M443.237,200.291a.95.95,0,0,1-.916.959.911.911,0,0,1-.98-.857.951.951,0,0,1,.915-.96A.909.909,0,0,1,443.237,200.291Z" transform="translate(-441.341 -199.431)"/></g><path class="e" d="M444.112,199.306c-.117.124-.838-.409-1.86-.406s-1.772.514-1.883.389c-.055-.055.064-.28.392-.518a2.616,2.616,0,0,1,1.508-.464,2.51,2.51,0,0,1,1.481.478C444.064,199.026,444.17,199.251,444.112,199.306Z" transform="translate(-440.356 -198.307)"/></g><g transform="translate(0 0.191)"><g transform="translate(1.69 1.534)"><path class="e" d="M435.763,200.5a.95.95,0,0,1-.916.959.908.908,0,0,1-.98-.856.95.95,0,0,1,.915-.96A.91.91,0,0,1,435.763,200.5Z" transform="translate(-433.867 -199.645)"/></g><path class="e" d="M436.312,199.454c-.117.124-.839-.409-1.861-.406s-1.772.514-1.883.389c-.054-.055.064-.28.393-.517a2.6,2.6,0,0,1,1.507-.465,2.506,2.506,0,0,1,1.481.478C436.263,199.174,436.37,199.4,436.312,199.454Z" transform="translate(-432.555 -198.455)"/></g><g transform="translate(6.989 0.252)"><path class="e" d="M438.457,207.027a6.785,6.785,0,0,1,1.661-.3c.262-.027.508-.079.552-.258a1.326,1.326,0,0,0-.174-.773q-.367-.949-.772-1.989a34.17,34.17,0,0,1-1.735-5.2,34.424,34.424,0,0,1,2.15,5.052c.258.7.5,1.364.74,2a1.519,1.519,0,0,1,.135,1.025.656.656,0,0,1-.429.383,1.806,1.806,0,0,1-.443.061A6.621,6.621,0,0,1,438.457,207.027Z" transform="translate(-437.978 -198.503)"/></g><g transform="translate(4.293 9.484)"><path class="e" d="M436.052,205.664c.166-.009.168,1.1,1.119,1.889s2.132.666,2.141.821c.015.07-.264.217-.764.229a2.762,2.762,0,0,1-1.786-.623,2.4,2.4,0,0,1-.866-1.583C435.852,205.932,435.976,205.658,436.052,205.664Z" transform="translate(-435.886 -205.664)"/></g></g><path class="e" d="M436.721,196.292c-.1.278-1.123.147-2.321.291-1.2.12-2.172.472-2.33.223-.071-.12.1-.382.488-.651a4.065,4.065,0,0,1,3.544-.391C436.543,195.941,436.765,196.16,436.721,196.292Z" transform="translate(-432.054 -195.525)"/><g transform="translate(10.598 0.564)"><path class="e" d="M443.76,197.024c-.18.232-.885-.009-1.732-.021-.847-.041-1.565.156-1.73-.088-.072-.117.04-.351.354-.57a2.5,2.5,0,0,1,2.789.086C443.74,196.671,443.838,196.91,443.76,197.024Z" transform="translate(-440.277 -195.963)"/></g></g><g transform="translate(0 18.56)"><path class="m" d="M428.06,201.992c-.113-.049-4.573-1.352-4.427,3.2s4.684,3.466,4.687,3.335S428.06,201.992,428.06,201.992Z" transform="translate(-423.629 -201.783)"/><g transform="translate(1.159 1.49)"><path class="o" d="M426.616,206.512c-.021-.013-.079.058-.21.124a.788.788,0,0,1-.592.032,1.962,1.962,0,0,1-.964-1.731,2.62,2.62,0,0,1,.186-1.142.916.916,0,0,1,.577-.628.4.4,0,0,1,.474.2c.064.125.039.217.063.224s.1-.08.053-.267a.511.511,0,0,0-.188-.28.6.6,0,0,0-.442-.1,1.115,1.115,0,0,0-.806.732,2.709,2.709,0,0,0-.234,1.278,2.06,2.06,0,0,0,1.219,1.928.855.855,0,0,0,.722-.143C426.611,206.622,426.631,206.519,426.616,206.512Z" transform="translate(-424.528 -202.938)"/></g></g></g><g transform="translate(65.369 110.024)"><rect class="e" width="66.243" height="3.232" transform="translate(66.243 3.232) rotate(-180)"/></g><g transform="translate(47.585 111.64)"><path class="e" d="M482.582,271.526,462.434,307.99H444.4l17.785-34.848Z" transform="translate(-444.395 -271.526)"/></g><g transform="translate(65.368 113.129)"><path class="i" d="M458.193,272.809c0,.133,14.846.316,33.157.409s33.161.057,33.163-.076-14.843-.317-33.16-.41S458.194,272.675,458.193,272.809Z" transform="translate(-458.193 -272.68)"/></g><g transform="translate(20.097 0)"><path class="e" d="M452.431,197.176a4.513,4.513,0,0,1-3.745-.268,1.071,1.071,0,0,1-.18,1.589,2.688,2.688,0,0,1-1.758.388,13.469,13.469,0,0,1-8.834-3.778,2.949,2.949,0,0,1-2.032,2.534,5.973,5.973,0,0,1-3.4.014,13.028,13.028,0,0,1,.209,5.137,4.439,4.439,0,0,1-3.339,3.546,8.56,8.56,0,0,0-.213,2.689c-.062.9-.59,1.941-1.5,1.966-.8.022-1.394-.8-1.5-1.587s.358-2.4-.207-3.686c-.616-1.392-.371-1.134-.983-2.527s-.956-3.309-1.433-4.753a6.736,6.736,0,0,1-.117-4.473,3.686,3.686,0,0,1,3.472-2.47,3.661,3.661,0,0,1,5.381-4.411s5.185-3.522,10.912-1.577c5.7,1.934,6.586,7.148,7.83,7.311s5.032-1.9,4.383-.6-1.732,2.543-2.272,2.6,4.328-2,2.65-.162A10.382,10.382,0,0,1,452.431,197.176Z" transform="translate(-423.067 -184.924)"/></g><g transform="translate(3.797 52.651)"><path class="d" d="M410.421,229.725a10.848,10.848,0,0,1,1.8-1.729,10.648,10.648,0,0,1,6.391-1.885c2.877-.01,6.18,1.24,9.417,3.228,3.275,1.939,6.565,4.668,10.683,6.461a16.384,16.384,0,0,0,12.328.45,17.293,17.293,0,0,0,4.765-2.715c1.356-1.049,2.545-2.1,3.708-2.947a11.424,11.424,0,0,1,6.191-2.528,8.228,8.228,0,0,1,2.462.329c0-.008-.046-.034-.147-.077a3.678,3.678,0,0,0-.458-.173,6.047,6.047,0,0,0-1.862-.267,11.332,11.332,0,0,0-6.386,2.438c-2.387,1.651-4.814,4.264-8.424,5.519a16.094,16.094,0,0,1-11.986-.474c-4.029-1.751-7.323-4.457-10.644-6.4-3.283-1.987-6.68-3.242-9.647-3.187a10.6,10.6,0,0,0-6.5,2.077,7.277,7.277,0,0,0-1.329,1.329A3.336,3.336,0,0,0,410.421,229.725Z" transform="translate(-410.42 -225.767)"/></g><g transform="translate(20.372 77.691)"><path class="d" d="M423.281,248.6c.027.034.451-.3,1.284-.776a13.328,13.328,0,0,1,3.771-1.452,12.625,12.625,0,0,1,5.927.106A74.082,74.082,0,0,1,441.2,249.1a16.935,16.935,0,0,0,13.313-.592,14.972,14.972,0,0,0,3.455-2.247,8.778,8.778,0,0,0,.813-.77c.178-.184.266-.286.254-.3-.032-.032-.421.338-1.186.923a16.654,16.654,0,0,1-3.481,2.081,17.629,17.629,0,0,1-5.793,1.481,16.544,16.544,0,0,1-7.211-1.034,67.019,67.019,0,0,0-6.994-2.6,12.648,12.648,0,0,0-6.113-.005,12.3,12.3,0,0,0-3.792,1.624,8.744,8.744,0,0,0-.9.665C423.369,248.494,423.271,248.588,423.281,248.6Z" transform="translate(-423.28 -245.19)"/></g><g transform="translate(13.037 94.775)"><path class="d" d="M417.59,260.43a15.25,15.25,0,0,1,1.8-.571,10.047,10.047,0,0,1,5.052.454,20.073,20.073,0,0,1,3.266,1.394c1.134.6,2.316,1.307,3.6,2a21.152,21.152,0,0,0,4.22,1.814,10.261,10.261,0,0,0,4.946.2c3.377-.734,6.047-2.685,8.509-4.156a16.508,16.508,0,0,1,7.025-2.76,8.065,8.065,0,0,1,4.912,1.054,8.9,8.9,0,0,1,1.451,1.2,1.918,1.918,0,0,0-.284-.409,5.227,5.227,0,0,0-1.065-.951,8.023,8.023,0,0,0-5.039-1.239,16.486,16.486,0,0,0-7.23,2.72c-2.493,1.464-5.14,3.366-8.377,4.063a9.842,9.842,0,0,1-4.721-.186,21.043,21.043,0,0,1-4.137-1.749c-1.277-.675-2.467-1.373-3.624-1.962a19.794,19.794,0,0,0-3.35-1.365,9.841,9.841,0,0,0-5.194-.309,6.011,6.011,0,0,0-1.336.5A1.95,1.95,0,0,0,417.59,260.43Z" transform="translate(-417.59 -258.443)"/></g><g transform="translate(10.661 110.589)"><path class="d" d="M415.746,274.688a1.613,1.613,0,0,0,.472.195,5.818,5.818,0,0,0,1.446.245,13.146,13.146,0,0,0,5.242-1.094,29.964,29.964,0,0,1,3.482-1.134,13.807,13.807,0,0,1,4.142-.236c2.946.249,6.046,1.361,9.358,2.314a28.2,28.2,0,0,0,4.957,1.015,21.608,21.608,0,0,0,4.721-.066,32.175,32.175,0,0,0,7.684-2.051c2.106-.83,3.749-1.638,4.874-2.211.563-.285.995-.52,1.285-.682a2.12,2.12,0,0,0,.432-.269,1.96,1.96,0,0,0-.476.182l-1.322.6c-1.148.52-2.808,1.276-4.916,2.061a33.274,33.274,0,0,1-7.614,1.927,21.544,21.544,0,0,1-4.619.036,28.385,28.385,0,0,1-4.873-1.008c-3.288-.944-6.425-2.06-9.453-2.292a14,14,0,0,0-4.272.289,28.967,28.967,0,0,0-3.511,1.2,13.684,13.684,0,0,1-5.115,1.227A10.109,10.109,0,0,1,415.746,274.688Z" transform="translate(-415.746 -270.71)"/></g><g transform="translate(1.111 68.276)"><path class="d" d="M408.337,239.024c-.018.017.158.257.563.6a7.487,7.487,0,0,0,1.922,1.174,8.2,8.2,0,0,0,3.29.638,9.2,9.2,0,0,0,3.961-1.047c1.3-.628,2.478-1.3,3.624-1.712a6.734,6.734,0,0,1,3.145-.351,4.019,4.019,0,0,1,1.956.815c.391.329.553.575.592.548a1.628,1.628,0,0,0-.464-.687,3.882,3.882,0,0,0-2.026-1.013,6.765,6.765,0,0,0-3.35.266,34.13,34.13,0,0,0-3.685,1.7,9.129,9.129,0,0,1-3.765,1.04,8.373,8.373,0,0,1-3.152-.51A13.712,13.712,0,0,1,408.337,239.024Z" transform="translate(-408.336 -237.887)"/></g><g transform="translate(55.204 66.719)"><path class="d" d="M450.31,238.91c-.019.019.062.161.3.326a2.049,2.049,0,0,0,1.174.308,3.63,3.63,0,0,0,1.721-.5c.588-.324,1.148-.776,1.757-1.167a4.694,4.694,0,0,1,3.481-.7c.932.171,1.446.514,1.489.442a2.5,2.5,0,0,0-1.411-.776,4.665,4.665,0,0,0-3.819.628c-.644.416-1.186.87-1.721,1.19a3.6,3.6,0,0,1-1.514.54A2.859,2.859,0,0,1,450.31,238.91Z" transform="translate(-450.307 -236.679)"/></g><g transform="translate(3.427 74.126)"><path class="m" d="M487.22,267.336l-13.553-1.629-9.55,6.264L427.6,263.215l-1.07-20.385-16.392-.4.383,23.924a13.883,13.883,0,0,0,14.261,13.586l53.491-1.483,2.271-4.553,11.476-.34Z" transform="translate(-410.133 -242.425)"/><g transform="translate(17.925 20.787)"><path class="o" d="M424.041,258.553a4.386,4.386,0,0,0,.686.209l1.987.518,7.329,1.825,24.216,5.871,2.253.539.09.022.076-.05,9.541-6.278-.13.031,13.561,1.568-.089-.052,3.58,4.547.965,1.2a2.923,2.923,0,0,0,.353.4,2.8,2.8,0,0,0-.294-.442l-.911-1.239c-.833-1.106-2.009-2.666-3.484-4.623l-.034-.044-.057-.006-13.546-1.693-.071-.008-.061.039-9.559,6.25.166-.028-2.253-.54-24.245-5.75-7.36-1.694-2.005-.441A4.629,4.629,0,0,0,424.041,258.553Z" transform="translate(-424.041 -258.55)"/></g><g transform="translate(69.683 28.583)"><path class="o" d="M464.2,264.81a32.781,32.781,0,0,0,5.264.213l.964,0-.135-.049a24.891,24.891,0,0,0,3.413,2.627,24.715,24.715,0,0,0-3.142-2.946l-.058-.05h-.077l-.964,0A32.772,32.772,0,0,0,464.2,264.81Z" transform="translate(-464.2 -264.597)"/></g><g transform="translate(11.188 20.787)"><path class="o" d="M418.824,262.636a7.921,7.921,0,0,1,6.317-3.976,2.275,2.275,0,0,0-1.179-.093,6.263,6.263,0,0,0-4.711,2.966A2.262,2.262,0,0,0,418.824,262.636Z" transform="translate(-418.814 -258.55)"/></g></g></g></g></svg>