<svg width="360" height="200" xmlns="http://www.w3.org/2000/svg" fill="none">

 <mask height="6" width="6" y="20" x="180" maskUnits="userSpaceOnUse" mask-type="alpha" id="mask0">
  <path id="svg_1" fill="white" d="m183,20c0.342,0 0.496,1.1018 1.246,1.8518c0.75,0.75 1.754,0.8074 1.754,1.1482c0,0.3408 -1.011,0.4936 -1.761,1.2436c-0.75,0.75 -0.805,1.7564 -1.239,1.7564c-0.434,0 -0.512,-1.0572 -1.262,-1.8072c-0.75,-0.75 -1.738,-0.8192 -1.738,-1.1928c0,-0.3736 0.905,-0.385 1.689,-1.1693c0.784,-0.7844 0.969,-1.8307 1.311,-1.8307z" clip-rule="evenodd" fill-rule="evenodd"/>
 </mask>
 <mask height="10" width="10" y="0" x="109" maskUnits="userSpaceOnUse" mask-type="alpha" id="mask1">
  <path id="svg_2" fill="white" d="m114,0c0.571,0 0.827,1.83642 2.077,3.08642c1.25,1.25 2.923,1.3456 2.923,1.91358c0,0.56798 -1.684,0.8226 -2.934,2.0726c-1.25,1.25 -1.343,2.9274 -2.066,2.9274c-0.723,0 -0.854,-1.76203 -2.104,-3.01203c-1.25,-1.25 -2.896,-1.36531 -2.896,-1.98797c0,-0.62266 1.508,-0.64162 2.815,-1.9489c1.307,-1.30727 1.614,-3.0511 2.185,-3.0511z" clip-rule="evenodd" fill-rule="evenodd"/>
 </mask>
 <mask height="6" width="6" y="62" x="102" maskUnits="userSpaceOnUse" mask-type="alpha" id="mask2">
  <path id="svg_3" fill="white" d="m105,62c0.342,0 0.496,1.1018 1.246,1.8518c0.75,0.75 1.754,0.8074 1.754,1.1482c0,0.3408 -1.011,0.4936 -1.761,1.2436c-0.75,0.75 -0.805,1.7564 -1.239,1.7564c-0.434,0 -0.512,-1.0572 -1.262,-1.8072c-0.75,-0.75 -1.738,-0.8192 -1.738,-1.1928c0,-0.3736 0.905,-0.385 1.689,-1.1693c0.784,-0.7844 0.969,-1.8307 1.311,-1.8307z" clip-rule="evenodd" fill-rule="evenodd"/>
 </mask>
 <mask height="6" width="6" y="27" x="138" maskUnits="userSpaceOnUse" mask-type="alpha" id="mask3">
  <path id="svg_4" fill="white" d="m141,27c0.342,0 0.496,1.1018 1.246,1.8518c0.75,0.75 1.754,0.8074 1.754,1.1482c0,0.3408 -1.011,0.4936 -1.761,1.2436c-0.75,0.75 -0.805,1.7564 -1.239,1.7564c-0.434,0 -0.512,-1.0572 -1.262,-1.8072c-0.75,-0.75 -1.738,-0.8192 -1.738,-1.1928c0,-0.3736 0.905,-0.385 1.689,-1.1693c0.784,-0.7844 0.969,-1.8307 1.311,-1.8307z" clip-rule="evenodd" fill-rule="evenodd"/>
 </mask>
 <mask height="6" width="6" y="54" x="217" maskUnits="userSpaceOnUse" mask-type="alpha" id="mask4">
  <path id="svg_5" fill="white" d="m220,54c0.342,0 0.496,1.1018 1.246,1.8518c0.75,0.75 1.754,0.8074 1.754,1.1482c0,0.3408 -1.011,0.4936 -1.761,1.2436c-0.75,0.75 -0.805,1.7564 -1.239,1.7564c-0.434,0 -0.512,-1.0572 -1.262,-1.8072c-0.75,-0.75 -1.738,-0.8192 -1.738,-1.1928c0,-0.3736 0.905,-0.385 1.689,-1.1693c0.784,-0.7844 0.969,-1.8307 1.311,-1.8307z" clip-rule="evenodd" fill-rule="evenodd"/>
 </mask>
 <mask height="4" width="4" y="29" x="209" maskUnits="userSpaceOnUse" mask-type="alpha" id="mask5">
  <path id="svg_6" fill="white" d="m211,33c1.105,0 2,-0.8954 2,-2c0,-1.1046 -0.895,-2 -2,-2c-1.105,0 -2,0.8954 -2,2c0,1.1046 0.895,2 2,2z" clip-rule="evenodd" fill-rule="evenodd"/>
 </mask>
 <mask height="3" width="3" y="125" x="249" maskUnits="userSpaceOnUse" mask-type="alpha" id="mask6">
  <path id="svg_7" fill="white" d="m250.5,128c0.828,0 1.5,-0.672 1.5,-1.5c0,-0.828 -0.672,-1.5 -1.5,-1.5c-0.828,0 -1.5,0.672 -1.5,1.5c0,0.828 0.672,1.5 1.5,1.5z" clip-rule="evenodd" fill-rule="evenodd"/>
 </mask>
 <mask height="3" width="3" y="148" x="222" maskUnits="userSpaceOnUse" mask-type="alpha" id="mask7">
  <path id="svg_8" fill="white" d="m223.5,151c0.828,0 1.5,-0.672 1.5,-1.5c0,-0.828 -0.672,-1.5 -1.5,-1.5c-0.828,0 -1.5,0.672 -1.5,1.5c0,0.828 0.672,1.5 1.5,1.5z" clip-rule="evenodd" fill-rule="evenodd"/>
 </mask>
 <mask height="2" width="2" y="27" x="102" maskUnits="userSpaceOnUse" mask-type="alpha" id="mask8">
  <path id="svg_9" fill="white" d="m103,29c0.552,0 1,-0.4477 1,-1c0,-0.5523 -0.448,-1 -1,-1c-0.552,0 -1,0.4477 -1,1c0,0.5523 0.448,1 1,1z" clip-rule="evenodd" fill-rule="evenodd"/>
 </mask>
 <mask height="2" width="2" y="129" x="98" maskUnits="userSpaceOnUse" mask-type="alpha" id="mask9">
  <path id="svg_10" fill="white" d="m99,131c0.5523,0 1,-0.448 1,-1c0,-0.552 -0.4477,-1 -1,-1c-0.5523,0 -1,0.448 -1,1c0,0.552 0.4477,1 1,1z" clip-rule="evenodd" fill-rule="evenodd"/>
 </mask>
 <mask height="6" width="6" y="33" x="248" maskUnits="userSpaceOnUse" mask-type="alpha" id="mask10">
  <path id="svg_11" fill="white" d="m251,33c0.342,0 0.496,1.1018 1.246,1.8518c0.75,0.75 1.754,0.8074 1.754,1.1482c0,0.3408 -1.011,0.4936 -1.761,1.2436c-0.75,0.75 -0.805,1.7564 -1.239,1.7564c-0.434,0 -0.512,-1.0572 -1.262,-1.8072c-0.75,-0.75 -1.738,-0.8192 -1.738,-1.1928c0,-0.3736 0.905,-0.385 1.689,-1.1693c0.784,-0.7844 0.969,-1.8307 1.311,-1.8307z" clip-rule="evenodd" fill-rule="evenodd"/>
 </mask>
 <mask height="24" width="110" y="85" x="36" maskUnits="userSpaceOnUse" mask-type="alpha" id="mask11">
  <path id="svg_12" fill="white" d="m67.2458,96.0027c0.5946,-1.486 1.3871,-2.8713 2.3448,-4.1236c3.1974,-4.1812 8.2376,-6.8791 13.9094,-6.8791c8.4672,0 15.5285,6.0125 17.15,14.0012c4.669,0.0722 8.52,3.5128 9.232,7.9988l21.118,0c0.552,0 1,0.448 1,1c0,0.552 -0.448,1 -1,1l-22.015,0c-0.529,0 -0.967,-0.413 -0.998,-0.942c-0.228,-3.936 -3.493,-7.058 -7.487,-7.058c-0.21,0 -0.399,0.007 -0.6047,0.024c-0.5236,0.042 -0.9902,-0.329 -1.0683,-0.848l-0.0038,-0.026c-1.1009,-7.2425 -7.2166,-12.8387 -14.6937,-13.1375c-0.2088,-0.0083 -0.4187,-0.0125 -0.6295,-0.0125c-5.0705,0 -9.5738,2.4351 -12.402,6.2008c-1.9454,2.5904 -3.098,5.8102 -3.098,9.2992c0,0.552 -0.4477,1 -1,1c-0.5523,0 -1,-0.448 -1,-1c0,-1.553 0.2022,-3.0581 0.5817,-4.4914c-5.3288,0.2192 -9.5817,4.6084 -9.5817,9.9914c0,0.552 -0.4477,1 -1,1l-19,0c-0.5523,0 -1,-0.448 -1,-1c0,-0.552 0.4477,-1 1,-1l18.0411,0c0.5081,-6.16 5.6682,-11 11.9589,-11c0.0811,0.0001 0.1633,0.001 0.2458,0.0027zm67.7542,11.9973c0,-0.552 0.448,-1 1,-1l9,0c0.552,0 1,0.448 1,1c0,0.552 -0.448,1 -1,1l-9,0c-0.552,0 -1,-0.448 -1,-1z" clip-rule="evenodd" fill-rule="evenodd"/>
 </mask>
 <mask height="26" width="121" y="62" x="203" maskUnits="userSpaceOnUse" mask-type="alpha" id="mask12">
  <path id="svg_13" fill="white" d="m263.5,62c-9.067,0 -16.609,6.5214 -18.194,15.1297c-4.617,0.7137 -8.284,4.2965 -9.125,8.8703l-20.181,0c-0.552,0 -1,0.4477 -1,1c0,0.5523 0.448,1 1,1l21.049,0c0.514,0 0.945,-0.3897 0.996,-0.9012c0.427,-4.302 3.886,-7.7142 8.209,-8.0684c0.466,-0.0382 0.843,-0.3941 0.909,-0.857c1.13,-8.0107 8.014,-14.1734 16.337,-14.1734c6.144,0 11.506,3.3584 14.346,8.3432c-1.153,0.2477 -2.261,0.6223 -3.275,1.1008c-0.499,0.237 -0.711,0.8335 -0.474,1.3324c0.237,0.4988 0.833,0.7111 1.332,0.4741c1.244,-0.5952 2.538,-0.9866 3.927,-1.1555c0.04,0.0002 0.08,-0.002 0.121,-0.0068c0.509,-0.0598 0.998,-0.0886 1.523,-0.0882c3.687,0 7.015,1.5347 9.381,4c2.241,2.3358 3.619,5.507 3.619,9c0,0.4833 0.343,0.8864 0.799,0.9797c0.065,0.0133 0.132,0.0203 0.201,0.0203l20,0c0.552,0 1,-0.4477 1,-1c0,-0.5523 -0.448,-1 -1,-1l-19.033,0c-0.225,-3.4204 -1.597,-6.5276 -3.734,-8.941c-2.748,-3.103 -6.762,-5.059 -11.233,-5.059c-0.345,0.0003 -0.698,0.0128 -1.045,0.0366c-3.071,-5.9587 -9.286,-10.0366 -16.455,-10.0366zm54.5,25c0,-0.5523 0.448,-1 1,-1l4,0c0.552,0 1,0.4477 1,1c0,0.5523 -0.448,1 -1,1l-4,0c-0.552,0 -1,-0.4477 -1,-1zm-115,0c0,-0.5523 0.448,-1 1,-1l8,0c0.552,0 1,0.4477 1,1c0,0.5523 -0.448,1 -1,1l-8,0c-0.552,0 -1,-0.4477 -1,-1z" clip-rule="evenodd" fill-rule="evenodd"/>
 </mask>
 <mask height="27" width="142" y="155" x="105" maskUnits="userSpaceOnUse" mask-type="alpha" id="mask13">
  <path id="svg_14" fill="white" d="m144.108,181.09c1.217,-13.506 12.569,-24.09 26.392,-24.09c10.638,0 19.813,6.268 24.032,15.316c-1.471,0.754 -2.765,1.802 -3.804,3.066c-0.351,0.427 -0.29,1.057 0.137,1.408c0.426,0.35 1.057,0.289 1.407,-0.137c1.836,-2.232 4.616,-3.653 7.728,-3.653c4.901,0 8.98,3.527 9.835,8.181c0.085,0.461 0.478,0.8 0.944,0.818l0.012,0.001c0.009,0 0.018,0 0.028,0l0.017,0l35.164,0c0.552,0 1,-0.448 1,-1c0,-0.552 -0.448,-1 -1,-1l-34.378,0c-1.333,-5.176 -6.03,-9 -11.622,-9c-1.26,0 -2.476,0.194 -3.617,0.555c-4.517,-9.772 -14.407,-16.555 -25.883,-16.555c-14.555,0 -26.561,10.91 -28.287,25l-26.213,0c-0.552,0 -1,0.448 -1,1c0,0.552 0.448,1 1,1l27.112,0c0.518,0 0.95,-0.395 0.996,-0.91zm-39.108,-0.09c0,-0.552 0.448,-1 1,-1l6,0c0.552,0 1,0.448 1,1c0,0.552 -0.448,1 -1,1l-6,0c-0.552,0 -1,-0.448 -1,-1z" clip-rule="evenodd" fill-rule="evenodd"/>
 </mask>
 <mask height="40" width="146" y="262" x="107" maskUnits="userSpaceOnUse" mask-type="alpha" id="mask14">
  <rect id="svg_15" stroke="white" fill="white" rx="19.5" height="39" width="145" y="262.5" x="107.5"/>
 </mask>
 <g>
  <title>Layer 1</title>
  <path id="svg_17" fill="#FFDB63" d="m183,20c0.342,0 0.496,1.1018 1.246,1.8518c0.75,0.75 1.754,0.8074 1.754,1.1482c0,0.3408 -1.011,0.4936 -1.761,1.2436c-0.75,0.75 -0.805,1.7564 -1.239,1.7564c-0.434,0 -0.512,-1.0572 -1.262,-1.8072c-0.75,-0.75 -1.738,-0.8192 -1.738,-1.1928c0,-0.3736 0.905,-0.385 1.689,-1.1693c0.784,-0.7844 0.969,-1.8307 1.311,-1.8307z" clip-rule="evenodd" fill-rule="evenodd"/>
  <g id="svg_18" mask="url(#mask0)"/>
  <path id="svg_19" fill="#FFDB63" d="m114,0c0.571,0 0.827,1.83642 2.077,3.08642c1.25,1.25 2.923,1.3456 2.923,1.91358c0,0.56798 -1.684,0.8226 -2.934,2.0726c-1.25,1.25 -1.343,2.9274 -2.066,2.9274c-0.723,0 -0.854,-1.76203 -2.104,-3.01203c-1.25,-1.25 -2.896,-1.36531 -2.896,-1.98797c0,-0.62266 1.508,-0.64162 2.815,-1.9489c1.307,-1.30727 1.614,-3.0511 2.185,-3.0511z" clip-rule="evenodd" fill-rule="evenodd"/>
  <g id="svg_20" mask="url(#mask1)"/>
  <path id="svg_21" fill="#FFDB63" d="m105,62c0.342,0 0.496,1.1018 1.246,1.8518c0.75,0.75 1.754,0.8074 1.754,1.1482c0,0.3408 -1.011,0.4936 -1.761,1.2436c-0.75,0.75 -0.805,1.7564 -1.239,1.7564c-0.434,0 -0.512,-1.0572 -1.262,-1.8072c-0.75,-0.75 -1.738,-0.8192 -1.738,-1.1928c0,-0.3736 0.905,-0.385 1.689,-1.1693c0.784,-0.7844 0.969,-1.8307 1.311,-1.8307z" clip-rule="evenodd" fill-rule="evenodd"/>
  <g id="svg_22" mask="url(#mask2)"/>
  <path id="svg_23" fill="#FFDB63" d="m141,27c0.342,0 0.496,1.1018 1.246,1.8518c0.75,0.75 1.754,0.8074 1.754,1.1482c0,0.3408 -1.011,0.4936 -1.761,1.2436c-0.75,0.75 -0.805,1.7564 -1.239,1.7564c-0.434,0 -0.512,-1.0572 -1.262,-1.8072c-0.75,-0.75 -1.738,-0.8192 -1.738,-1.1928c0,-0.3736 0.905,-0.385 1.689,-1.1693c0.784,-0.7844 0.969,-1.8307 1.311,-1.8307z" clip-rule="evenodd" fill-rule="evenodd"/>
  <g id="svg_24" mask="url(#mask3)"/>
  <path id="svg_25" fill="#FFDB63" d="m220,54c0.342,0 0.496,1.1018 1.246,1.8518c0.75,0.75 1.754,0.8074 1.754,1.1482c0,0.3408 -1.011,0.4936 -1.761,1.2436c-0.75,0.75 -0.805,1.7564 -1.239,1.7564c-0.434,0 -0.512,-1.0572 -1.262,-1.8072c-0.75,-0.75 -1.738,-0.8192 -1.738,-1.1928c0,-0.3736 0.905,-0.385 1.689,-1.1693c0.784,-0.7844 0.969,-1.8307 1.311,-1.8307z" clip-rule="evenodd" fill-rule="evenodd"/>
  <g id="svg_26" mask="url(#mask4)"/>
  <path id="svg_27" fill="#E6EBEE" d="m211,33c1.105,0 2,-0.8954 2,-2c0,-1.1046 -0.895,-2 -2,-2c-1.105,0 -2,0.8954 -2,2c0,1.1046 0.895,2 2,2z" clip-rule="evenodd" fill-rule="evenodd"/>
  <g id="svg_28" mask="url(#mask5)"/>
  <path id="svg_29" fill="#E6EBEE" d="m250.5,128c0.828,0 1.5,-0.672 1.5,-1.5c0,-0.828 -0.672,-1.5 -1.5,-1.5c-0.828,0 -1.5,0.672 -1.5,1.5c0,0.828 0.672,1.5 1.5,1.5z" clip-rule="evenodd" fill-rule="evenodd"/>
  <g id="svg_30" mask="url(#mask6)"/>
  <path id="svg_31" fill="#E6EBEE" d="m223.5,151c0.828,0 1.5,-0.672 1.5,-1.5c0,-0.828 -0.672,-1.5 -1.5,-1.5c-0.828,0 -1.5,0.672 -1.5,1.5c0,0.828 0.672,1.5 1.5,1.5z" clip-rule="evenodd" fill-rule="evenodd"/>
  <g id="svg_32" mask="url(#mask7)"/>
  <path id="svg_33" fill="#E6EBEE" d="m103,29c0.552,0 1,-0.4477 1,-1c0,-0.5523 -0.448,-1 -1,-1c-0.552,0 -1,0.4477 -1,1c0,0.5523 0.448,1 1,1z" clip-rule="evenodd" fill-rule="evenodd"/>
  <g id="svg_34" mask="url(#mask8)"/>
  <path id="svg_35" fill="#E6EBEE" d="m99,131c0.5523,0 1,-0.448 1,-1c0,-0.552 -0.4477,-1 -1,-1c-0.5523,0 -1,0.448 -1,1c0,0.552 0.4477,1 1,1z" clip-rule="evenodd" fill-rule="evenodd"/>
  <g id="svg_36" mask="url(#mask9)"/>
  <path id="svg_37" fill="#FFDB63" d="m251,33c0.342,0 0.496,1.1018 1.246,1.8518c0.75,0.75 1.754,0.8074 1.754,1.1482c0,0.3408 -1.011,0.4936 -1.761,1.2436c-0.75,0.75 -0.805,1.7564 -1.239,1.7564c-0.434,0 -0.512,-1.0572 -1.262,-1.8072c-0.75,-0.75 -1.738,-0.8192 -1.738,-1.1928c0,-0.3736 0.905,-0.385 1.689,-1.1693c0.784,-0.7844 0.969,-1.8307 1.311,-1.8307z" clip-rule="evenodd" fill-rule="evenodd"/>
  <g id="svg_38" mask="url(#mask10)"/>
  <path id="svg_39" fill-opacity="0.04" fill="black" d="m102,101c-7.4483,-16.0763 -16,-17 -24,-13.5c9,1.1012 16,8.5 19,15.5c0.5,-1 3.5,-2.5 5,-2z"/>
  <path id="svg_40" fill="#CAD3D9" d="m67.2458,96.0027c0.5946,-1.486 1.3871,-2.8713 2.3448,-4.1236c3.1974,-4.1812 8.2376,-6.8791 13.9094,-6.8791c8.4672,0 15.5285,6.0125 17.15,14.0012c4.669,0.0722 8.52,3.5128 9.232,7.9988l21.118,0c0.552,0 1,0.448 1,1c0,0.552 -0.448,1 -1,1l-22.015,0c-0.529,0 -0.967,-0.413 -0.998,-0.942c-0.228,-3.936 -3.493,-7.058 -7.487,-7.058c-0.21,0 -0.399,0.007 -0.6047,0.024c-0.5236,0.042 -0.9902,-0.329 -1.0683,-0.848l-0.0038,-0.026c-1.1009,-7.2425 -7.2166,-12.8387 -14.6937,-13.1375c-0.2088,-0.0083 -0.4187,-0.0125 -0.6295,-0.0125c-5.0705,0 -9.5738,2.4351 -12.402,6.2008c-1.9454,2.5904 -3.098,5.8102 -3.098,9.2992c0,0.552 -0.4477,1 -1,1c-0.5523,0 -1,-0.448 -1,-1c0,-1.553 0.2022,-3.0581 0.5817,-4.4914c-5.3288,0.2192 -9.5817,4.6084 -9.5817,9.9914c0,0.552 -0.4477,1 -1,1l-19,0c-0.5523,0 -1,-0.448 -1,-1c0,-0.552 0.4477,-1 1,-1l18.0411,0c0.5081,-6.16 5.6682,-11 11.9589,-11c0.0811,0.0001 0.1633,0.001 0.2458,0.0027zm67.7542,11.9973c0,-0.552 0.448,-1 1,-1l9,0c0.552,0 1,0.448 1,1c0,0.552 -0.448,1 -1,1l-9,0c-0.552,0 -1,-0.448 -1,-1z" clip-rule="evenodd" fill-rule="evenodd"/>
  <g id="svg_41" mask="url(#mask11)"/>
  <path id="svg_42" fill-opacity="0.04" fill="black" d="m279,74c-3,-9.5 -14,-12.8327 -22,-9.3327c9,1.1012 13,5.3327 16,12.3327c1.5,-1.5 3.5,-2.5 6,-3z"/>
  <path id="svg_43" fill="#CAD3D9" d="m263.5,62c-9.067,0 -16.609,6.5214 -18.194,15.1297c-4.617,0.7137 -8.284,4.2965 -9.125,8.8703l-20.181,0c-0.552,0 -1,0.4477 -1,1c0,0.5523 0.448,1 1,1l21.049,0c0.514,0 0.945,-0.3897 0.996,-0.9012c0.427,-4.302 3.886,-7.7142 8.209,-8.0684c0.466,-0.0382 0.843,-0.3941 0.909,-0.857c1.13,-8.0107 8.014,-14.1734 16.337,-14.1734c6.144,0 11.506,3.3584 14.346,8.3432c-1.153,0.2477 -2.261,0.6223 -3.275,1.1008c-0.499,0.237 -0.711,0.8335 -0.474,1.3324c0.237,0.4988 0.833,0.7111 1.332,0.4741c1.244,-0.5952 2.538,-0.9866 3.927,-1.1555c0.04,0.0002 0.08,-0.002 0.121,-0.0068c0.509,-0.0598 0.998,-0.0886 1.523,-0.0882c3.687,0 7.015,1.5347 9.381,4c2.241,2.3358 3.619,5.507 3.619,9c0,0.4833 0.343,0.8864 0.799,0.9797c0.065,0.0133 0.132,0.0203 0.201,0.0203l20,0c0.552,0 1,-0.4477 1,-1c0,-0.5523 -0.448,-1 -1,-1l-19.033,0c-0.225,-3.4204 -1.597,-6.5276 -3.734,-8.941c-2.748,-3.103 -6.762,-5.059 -11.233,-5.059c-0.345,0.0003 -0.698,0.0128 -1.045,0.0366c-3.071,-5.9587 -9.286,-10.0366 -16.455,-10.0366zm54.5,25c0,-0.5523 0.448,-1 1,-1l4,0c0.552,0 1,0.4477 1,1c0,0.5523 -0.448,1 -1,1l-4,0c-0.552,0 -1,-0.4477 -1,-1zm-115,0c0,-0.5523 0.448,-1 1,-1l8,0c0.552,0 1,0.4477 1,1c0,0.5523 -0.448,1 -1,1l-8,0c-0.552,0 -1,-0.4477 -1,-1z" clip-rule="evenodd" fill-rule="evenodd"/>
  <g id="svg_44" mask="url(#mask12)"/>
  <path id="svg_45" fill-opacity="0.04" fill="black" d="m197,173c-10.5,-16.5 -25.5,-20 -38.5,-15c18,1.5 29.948,14.971 31.5,21c3.5,-4 6,-6 7,-6z"/>
  <path id="svg_46" fill="#CAD3D9" d="m144.108,181.09c1.217,-13.506 12.569,-24.09 26.392,-24.09c10.638,0 19.813,6.268 24.032,15.316c-1.471,0.754 -2.765,1.802 -3.804,3.066c-0.351,0.427 -0.29,1.057 0.137,1.408c0.426,0.35 1.057,0.289 1.407,-0.137c1.836,-2.232 4.616,-3.653 7.728,-3.653c4.901,0 8.98,3.527 9.835,8.181c0.085,0.461 0.478,0.8 0.944,0.818l0.012,0.001c0.009,0 0.018,0 0.028,0l0.017,0l35.164,0c0.552,0 1,-0.448 1,-1c0,-0.552 -0.448,-1 -1,-1l-34.378,0c-1.333,-5.176 -6.03,-9 -11.622,-9c-1.26,0 -2.476,0.194 -3.617,0.555c-4.517,-9.772 -14.407,-16.555 -25.883,-16.555c-14.555,0 -26.561,10.91 -28.287,25l-26.213,0c-0.552,0 -1,0.448 -1,1c0,0.552 0.448,1 1,1l27.112,0c0.518,0 0.95,-0.395 0.996,-0.91zm-39.108,-0.09c0,-0.552 0.448,-1 1,-1l6,0c0.552,0 1,0.448 1,1c0,0.552 -0.448,1 -1,1l-6,0c-0.552,0 -1,-0.448 -1,-1z" clip-rule="evenodd" fill-rule="evenodd"/>
  <g id="svg_47" mask="url(#mask13)"/>
  <path id="svg_48" fill="white" d="m169.405,43.809c-1.263,-1.156 -2.905,-1.809 -4.652,-1.809c-3.783,0 -6.846,3.025 -6.846,6.75c0,2.6606 1.58,5.038 3.999,6.1319c0.514,0.2326 0.734,0.8445 0.486,1.3513c-0.617,1.2571 -0.941,2.6171 -0.941,4.0168c0,5.1058 4.195,9.25 9.376,9.25c2.589,0 5.006,-1.0439 6.767,-2.8585c0.189,-0.194 0.447,-0.3035 0.718,-0.3035l12.611,0l-21.518,-22.529zm-24.405,35.191c-8.837,0 -16,7.1634 -16,16l0,30l18,0l14,0l62,0l0,-29c0,-9.5109 -7.561,-17 -17,-17l-3,0c-0.019,0 -0.041,0.0002 -0.067,0.0006c-0.038,0.0006 -0.083,0.0015 -0.132,0.0025c-0.223,0.0045 -0.543,0.011 -0.801,-0.0031l-55,0l0,0.1238c-0.655,-0.0817 -1.323,-0.1238 -2,-0.1238zm28,76.108l0,-28.108l6,0l0,29.289c-1.921,-0.599 -3.929,-1.001 -6,-1.181z" clip-rule="evenodd" fill-rule="evenodd"/>
  <path id="svg_49" fill="#A6D2FF" d="m217,125l6,0l0,-29c0,-9.5109 -7.439,-17 -17,-17l-2,0c-0.563,0 -1.11,0.0165 -1.643,0.0489c7.85,1.1653 14.643,8.2496 14.643,16.9511l0,29zm-37,-36c0,2.7614 -2.239,5 -5,5c-2.761,0 -5,-2.2386 -5,-5c0,-2.7614 2.239,-5 5,-5c2.761,0 5,2.2386 5,5z" clip-rule="evenodd" fill-rule="evenodd"/>
  <path id="svg_50" fill="#0B77E3" d="m156.27,51.2326c0.627,2.0912 2.029,3.8842 3.934,5.0144c-0.495,1.2727 -0.753,2.6218 -0.753,4.003c0,4.4091 2.564,8.2237 6.296,10.0687l0,6.6813l-20.747,0c-9.941,0 -18,8.0589 -18,18l0,32l18,0l18,0l8,0l0,28.004c0.673,0.012 1.34,0.047 2,0.104l0,-28.108l6,0l0,29.289c0.678,0.212 1.345,0.448 2,0.708l0,-29.997l44,0l0,-31c0,-10.6198 -8.461,-19 -19,-19l-34.253,0l0,-5.5365c2.64,-0.2105 5.09,-1.3219 6.977,-3.1255l14.537,0c0.88,0 1.331,-1.0545 0.723,-1.6908l-23.181,-24.2665c-1.675,-1.5368 -3.797,-2.3807 -6.05,-2.3807c-4.041,0 -7.452,2.6819 -8.508,6.3477l-1.297,0.5413l-2.333,0.9728c-0.82,0.342 -0.82,1.504 0,1.846l2.334,0.973l1.321,0.5518zm11.477,25.7674l0,-5.9173c0.645,0.1791 1.314,0.3033 2,0.3672l0,5.5501l-2,0zm55.253,48l0,-29c0,-9.5109 -7.561,-17 -17,-17l-3,0c-0.048,0 -0.117,0.0014 -0.199,0.0031l0,0c-0.223,0.0045 -0.543,0.011 -0.801,-0.0031l-48.746,0c5.789,2.9925 9.746,9.0341 9.746,16l0,30l8,0l10,0l42,0zm-94,-30c0,-8.8366 7.163,-16 16,-16c8.837,0 16,7.1634 16,16l0,30l-32,0l0,-30zm60,-5l-14,0c-0.564,0 -1,-0.4477 -1,-1c0,-0.5523 0.436,-1 1,-1l14,0l19,0l0,31l-9,-8l-10,8l0,-29zm17,0l-15,0l0,25l8,-6.5l7,6.5l0,-25zm-36.595,-46.191c-1.263,-1.156 -2.905,-1.809 -4.652,-1.809c-3.783,0 -6.846,3.0251 -6.846,6.75c0,2.6606 1.58,5.038 3.999,6.1319c0.514,0.2326 0.734,0.8445 0.486,1.3513c-0.617,1.2571 -0.941,2.6171 -0.941,4.0168c0,5.1058 4.195,9.25 9.376,9.25c2.589,0 5.006,-1.0439 6.767,-2.8585c0.189,-0.194 0.447,-0.3035 0.718,-0.3035l12.611,0l-21.518,-22.529zm-2.805,11.7102c-0.551,0.0307 -0.973,0.5027 -0.943,1.0541c0.059,1.0598 0.559,2.5498 1.872,4.0175c1.653,1.8473 4.227,3.1103 7.853,3.5598c0.548,0.068 1.047,-0.3213 1.115,-0.8694c0.068,-0.5481 -0.321,-1.0475 -0.869,-1.1154c-3.163,-0.3921 -5.291,-1.4363 -6.608,-2.9086c-0.572,-0.6392 -0.952,-1.3185 -1.178,-1.993c-0.13,-0.3886 -0.18,-0.6739 -0.188,-0.8021c-0.03,-0.5514 -0.502,-0.9736 -1.054,-0.9429zm-3.353,-5.6812c0.828,0 1.5,-0.6716 1.5,-1.5c0,-0.8284 -0.672,-1.5 -1.5,-1.5c-0.829,0 -1.5,0.6716 -1.5,1.5c0,0.8284 0.671,1.5 1.5,1.5z" clip-rule="evenodd" fill-rule="evenodd"/>
 </g>
</svg>